<svg viewBox="0 0 2880 1800" xmlns="http://www.w3.org/2000/svg">
<rect fill="black" height="100%" width="100%"/>
<path d="M1137.0477,900 C1137.0477,900,1144.3838,900.0621,1151.4774,900.1804,1167.8076,900.766,1182.0531,901.51794,1196.0244,902.4903,1209.7323,903.6735" fill="none" stroke="white" stroke-width="3"/>
<path d="M1209.7323,903.6735 C1209.7323,903.6735,1223.4244,905.32074" fill="none" stroke="white" stroke-width="3"/>
<path d="M1137.0477,900 C1137.0477,900,1144.3838,899.95197,1151.4775,899.86035,1167.8103,899.407,1182.0615,898.8248,1196.0433,898.07196,1209.7678,897.1557,1223.5045,896.0588,1275.8466,889.1332" fill="none" stroke="white" stroke-width="3"/>
<path d="M1275.8466,889.1332 C1275.8466,889.1332,1288.1671,887.2014,1300.697,884.91815,1313.5726,882.2271,1325.7435,879.36725,1337.6138,876.26904,1349.4197,872.8729,1361.3593,869.10596,1372.8169,865.1744,1384.1718,860.9557,1395.0378,856.61206,1405.9507,851.9279,1416.7935,846.94214,1426.9034,841.992,1437.1371,836.6578,1446.8665,831.2794,1456.8121,825.4435,1466.296,819.55383,1475.4825,813.5265,1484.528,807.25995,1493.0052,801.0773,1501.615,794.457,1509.9099,787.73975,1516.7274,781.97504,1520.6061,778.61285,1524.4386,775.20703,1528.2114,771.7702,1531.973,768.25665,1535.8403,764.5486,1539.3687,761.0825,1543.005,757.4183,1546.397,753.9169,1550.01,750.08826,1553.136,746.69836,1573.9949,719.65686" fill="none" stroke="white" stroke-width="3"/>
<path d="M1275.8466,889.1332 C1275.8466,889.1332,1288.3109,888.2882,1301.0933,888.26465,1314.292,889.14813,1326.7778,890.81555,1338.9188,893.2522,1350.9114,896.4951,1362.9045,900.6306,1374.2389,905.40204,1385.2491,910.93274,1395.5327,916.9706,1405.5543,923.7963,1415.1549,931.33936,1423.7465,939.0394,1432.0216,947.5224,1439.4572,956.21216,1446.5507,965.7506,1452.7983,975.4414,1458.3114,985.3847,1463.1616,995.7112,1467.1477,1005.85376,1470.5623,1016.62823,1473.206,1027.4391,1474.9049,1036.605,1475.7091,1041.9064,1476.3384,1047.2277,1476.7908,1052.5446,1477.0684,1057.9219,1477.1624,1063.5287,1477.0818,1068.7069,1476.8146,1074.1085,1476.3982,1079.2008,1475.7566,1084.6836,1475.0471,1089.4686,1461.5187,1123.5414,1458.3967,1130.4106,1454.1846,1138.4005,1448.741,1147.2214,1442.8944,1155.4237" fill="none" stroke="white" stroke-width="3"/>
<path d="M1573.9949,719.65686 C1573.9949,719.65686,1578.0126,713.88904,1582.4093,706.715,1586.8861,698.15936,1590.6757,689.5752,1593.8391,680.9083,1596.4497,671.9237,1598.4291,662.89795" fill="none" stroke="white" stroke-width="3"/>
<path d="M1573.9949,719.65686 C1573.9949,719.65686,1578.1207,713.97253,1582.812,707.00635,1587.8586,698.8116,1592.4352,690.67065,1596.6097,682.50604,1600.5,674.07446,1603.9994,665.612,1607.1243,657.1034,1609.798,648.8476,1612.2563,640.0306,1614.2253,631.7376,1615.9117,623.0921,1617.221,614.5878,1618.1918,605.967,1618.8009,597.55743,1619.0721,589.21045,1619.0074,580.85114,1618.6078,572.54956" fill="none" stroke="white" stroke-width="3"/>
<path d="M1738.7421,900 C1738.7421,900,1747.2098,899.7133,1755.4238,899.1618,1763.5352,898.34607,1771.6205,897.25806,1779.6161,895.90686,1786.1171,894.62195,1789.9454,893.7996,1793.7881,892.907,1797.5616,891.9644" fill="none" stroke="white" stroke-width="3"/>
<path d="M1618.6078,572.54956 C1618.6078,572.54956,1618.0557,565.7789,1617.6504,561.78516,1617.1617,557.7703,1616.6016,553.82196,1615.9573,549.8551,1615.242,545.94476,1614.4567,542.0864,1613.6067,538.29407,1612.6814,534.517,1611.6866,530.7782,1610.5961,526.9898,1609.4464,523.2781,1608.2523,519.67535,1606.9623,516.03064,1605.5479,512.28613,1604.1399,508.77206,1602.6633,505.29016" fill="none" stroke="white" stroke-width="3"/>
<path d="M1275.8466,889.1332 C1275.8466,889.1332,1288.1997,887.4484,1300.8046,885.6764,1313.8105,883.7909,1326.1614,881.9483,1338.2694,880.0913,1350.3826,878.18225,1362.7152,876.1848,1374.636,874.20325,1386.5444,872.1723,1398.0371,870.1638,1409.6881,868.0773,1421.3838,865.9313,1432.4042,863.863,1443.6897,861.6958,1454.5493,859.56445,1465.8007,857.30615,1476.6808,855.075,1487.3765,852.8353,1498.0756,850.548,1508.2653,848.32635,1518.7997,845.9829,1529.1396,843.6371,1537.7797,841.6448,1542.7444,840.48926,1547.7007,839.32495,1552.6313,838.15594,1557.6014,836.9667,1562.7717,835.71765,1567.5419,834.55505,1572.5178,833.3311,1577.2141,832.16595,1582.2821,830.89685,1586.719,829.77673,1619.3318,821.03204,1626.0308,819.2139,1634.028,817.01196,1643.174,814.45197,1652.0317,811.93286,1660.712,809.4256,1669.4843,806.85175,1678.1177,804.2793,1686.6456,801.6994,1694.7941,799.19836,1703.3701,796.5256,1711.3401,794.0063,1719.5587,791.37024,1727.57,788.7639,1735.6294,786.1041,1743.4454,783.48865,1751.1703,780.868,1758.8855,778.2145,1766.5387,775.54626,1772.783,773.3449,1776.4695,772.03674,1780.1803,770.71124,1783.8358,769.397,1787.5161,768.06506,1791.1531,766.74036,1794.752,765.421,1798.3009,764.11176,1801.8485,762.7947,1805.3748,761.4773,1808.9642,760.1276,1812.4988,758.79016,1815.9478,757.477,1819.4576,756.13214,1823.0876,754.73224,1826.5173,753.40137,1829.9403,752.06494,1833.3226,750.73627,1836.6313,749.4287,1840.0238,748.0798" fill="none" stroke="white" stroke-width="3"/>
<path d="M1223.4244,905.32074 C1223.4244,905.32074,1274.123,925.67505,1285.7874,931.24695,1297.3209,937.7208,1308.7689,945.2239,1319.176,953.07135,1328.8813,961.4369,1338.0432,970.4538,1346.7521,980.2755,1354.544,990.3357,1361.658,1000.9156,1367.8591,1011.5833,1373.424,1022.8281,1378.2448,1034.5055,1382.0762,1045.8118,1385.2246,1057.663,1387.5112,1069.2739,1389.0583,1081.4761,1389.7655,1093.3857,1389.6823,1105.1497,1388.8068,1116.9221,1387.246,1128.0898,1384.8489,1139.5367,1381.7385,1150.6246,1378.6122,1159.7498,1376.6432,1164.9369,1374.5065,1170.0531,1372.2125,1175.0754,1369.7303,1180.0635,1366.9661,1185.165,1364.2622,1189.7916,1361.2766,1194.5247,1358.3137,1198.9032,1354.9495,1203.5192,1351.8785,1207.4717,1322.3708,1231.3094,1316.0663,1235.9148,1308.2096,1240.9762,1298.8207,1246.1611,1289.3829,1250.5835,1279.8378,1254.3126,1269.9259,1257.4358,1259.9526,1259.859,1249.9285,1261.5955,1240.2313,1262.6366,1229.9362,1263.0302,1220.3329,1262.7766,1210.4343,1261.8457,1200.8331,1260.2942,1191.2667,1258.0763,1182.1195,1255.3053,1173.2487,1251.9618,1164.6006,1248.0225,1156.2731,1243.5308,1149.6738,1239.4843,1145.8536,1236.9652,1142.09,1234.2993,1138.4666,1231.5487,1134.9084,1228.6553,1131.4847,1225.6768,1128.1918,1222.615,1125.0413,1219.4869,1121.9927,1216.2537,1119.0663,1212.9375,1116.1991,1209.4585,1113.4883,1205.9357,1110.9539,1202.4084,1108.4933,1198.7294,1106.0796,1194.8323,1103.9197,1191.0714,1101.8875,1187.243,1100.0032,1183.3903,1098.2814,1179.5582,1096.6467,1175.5665,1095.154,1171.5405,1093.8204,1167.5416,1092.6085,1163.4542,1091.5509,1159.3965,1090.6274,1155.2949,1089.3114,1146.674,1088.6033,1137.5105,1088.5085,1129.5072,1088.9697,1121.2738,1089.9412,1113.3549" fill="none" stroke="white" stroke-width="3"/>
<path d="M1738.7421,900 C1738.7421,900,1747.2098,899.42664,1755.3961,898.3236,1763.4257,896.694,1771.3472,894.5253,1779.0714,891.8412,1785.2598,889.2986,1788.8663,887.676,1792.445,885.9205,1795.9156,884.0733,1799.3503,882.0952,1802.682,880.02606,1805.9136,877.86786,1809.0328,875.63336,1812.0796,873.2951,1815.0336,870.86926,1817.9595,868.2963,1820.758,865.6644,1823.4067,863.00446,1826.0133,860.2048,1828.61,857.2126,1830.9713,854.3017,1833.233,851.31555,1835.3718,848.28827,1837.3691,845.2562,1839.3141,842.0759,1841.1427,838.84686,1842.8319,835.61896,1844.4293,832.29877,1845.8911,828.9826,1847.2445,825.6105,1849.5559,818.4366,1851.4235,810.716,1852.6077,803.9008,1853.3492,796.8126,1853.6122,789.92236,1853.4232,783.10803,1852.7671,776.2259,1851.666,769.4905" fill="none" stroke="white" stroke-width="3"/>
<path d="M1738.7421,900 C1738.7421,900,1747.2098,900.1911,1755.429,900.5588,1763.5554,901.1027,1771.6711,901.8285,1779.7172,902.7304,1786.2762,903.5887,1790.1459,904.1383,1794.0377,904.7352,1797.8679,905.36597,1801.72,906.0445,1805.522,906.7577,1809.2793,907.5055,1812.9791,908.28406,1816.6719,909.1036,1820.3362,909.95917,1824.0593,910.8728,1827.7184,911.814,1831.2816,912.7723,1834.8998,913.7889,1838.6326,914.88477,1842.1506,915.9601,1845.6527,917.07324,1849.104,918.21234,1852.4707,919.36426,1855.9122,920.585,1859.3225,921.83795,1862.6552,923.1043,1866.0093,924.4221,1869.2922,925.7542,1872.567,927.1258,1879.277,930.1222,1886.2507,933.4464,1892.2479,936.4672,1898.3423,939.7119,1904.1566,942.9741,1909.8218,946.3184,1915.4779,949.8312,1920.9717,953.4157,1926.2712,957.0431,1931.3284,960.6675,1936.5098,964.5624,1941.475,968.47186,1946.0895,972.2678,1950.9136,976.4261,1955.4138,980.48206" fill="none" stroke="white" stroke-width="3"/>
<path d="M1602.6633,505.29016 C1602.6633,505.29016,1601.0889,501.89514,1599.4391,498.62164,1597.6332,495.3194,1595.7261,492.09448,1593.7499,488.9922,1591.6467,485.92377,1589.4789,482.97617,1587.2075,480.0953,1582.0898,474.46362,1576.2704,468.94556,1570.8998,464.48102,1565.0676,460.26666,1559.168,456.5709,1553.1074,453.30893,1546.7526,450.4218,1540.3025,447.99802,1533.8319,446.04437,1527.4419,444.5587,1520.6807,443.4656,1514.0189,442.84317,1507.6838,442.6588,1500.9196,442.9287,1494.5038,443.61224,1488.1658,444.71805,1481.9253,446.24353" fill="none" stroke="white" stroke-width="3"/>
<path d="M1573.9949,719.65686 C1573.9949,719.65686,1578.5535,714.30634,1584.376,708.2321,1591.5145,701.7296,1598.8551,695.8846,1606.4347,690.62415,1614.462,685.8178,1622.6893,681.6116,1631.1049,677.99615,1639.3793,675.058,1648.3126,672.5619,1656.7754,670.77704,1665.6382,669.52374,1674.3702,668.87604,1683.2112,668.8192,1691.8005,669.3343,1700.2677,670.4085,1708.6642,672.051,1716.8954,674.24426,1723.5201,676.4088,1727.392,677.8165,1731.2449,679.36456,1734.9928,681.01605,1738.7134,682.80634,1742.334,684.69916,1745.8574,686.6922,1749.27,688.77313,1752.6154,690.9675,1755.871,693.26,1759.1088,695.70746,1762.2189,698.226,1765.1754,700.7852,1768.099,703.49286,1771.0271,706.4012,1773.7046,709.2432,1776.2843,712.17114,1778.7395,715.15125,1781.0481,718.14716,1783.3137,721.30115,1785.4622,724.51483,1787.4657,727.73804,1789.3811,731.06415,1791.1552,734.39655,1792.821,737.7954,1795.775,745.07,1798.31,752.94666,1800.0654,759.9354,1801.3821,767.2419,1802.1862,774.37964,1802.5149,781.4734,1802.3636,788.6735,1801.7388,795.7555,1800.6675,802.6466,1799.1969,809.25385,1797.1953,816.0312,1794.8004,822.50586,1792.1438,828.4811,1788.873,834.6528,1785.3732,840.3156,1781.5151,845.71765,1777.3103,850.8416,1772.8774,855.5692,1768.1556,859.97864,1763.1421,864.0682,1758.1073,867.66046,1752.5856,871.05774,1746.9501,874.02106" fill="none" stroke="white" stroke-width="3"/>
<path d="M1955.4138,980.48206 C1955.4138,980.48206,1959.6223,984.81616,1963.5253,989.4155,1967.0363,994.15454,1970.2153,999.10034,1973.0604,1004.25525,1975.4569,1009.34827,1977.5995,1014.84546,1979.335,1020.37384,1980.6451,1025.7438,1981.6243,1031.4001,1982.2054,1036.8718,1982.4271,1042.242,1982.2811,1047.8113" fill="none" stroke="white" stroke-width="3"/>
<path d="M1840.0238,748.0798 C1840.0238,748.0798,1843.3914,746.7189,1846.6884,745.36523,1850.0131,743.97833,1853.2739,742.5968,1856.5338,741.19415,1863.2452,738.213,1870.2599,734.9924,1876.3251,732.1272,1882.5262,729.11145,1888.4807,726.13403,1894.3225,723.13226,1900.1993,720.0285,1905.9536,716.9067,1911.552,713.7888,1916.9419,710.7103,1922.5193,707.43994,1927.9198,704.19147,1932.9921,701.0661,1938.3588,697.67346,1943.4268,694.3906,1948.4329,691.0683,1953.3833,687.7026,1958.1768,684.3657,1962.908,680.99384,1967.5978,677.5718,1972.0366,674.25903,1976.6392,670.7419,1981.1102,667.24475,1985.3303,663.8696,1989.6633,660.32294,1993.7706,656.88525,1997.738,653.4913,2001.8018,649.93494,2005.8303,646.32745" fill="none" stroke="white" stroke-width="3"/>
<path d="M1851.666,769.4905 C1851.666,769.4905,1850.1511,762.96954,1848.274,756.74866,1845.8766,750.40265,1843.124,744.3743,1840.1565,738.8428,1836.587,733.16675,1832.8344,727.9941,1828.7573,723.09656,1824.368,718.48987,1819.7886,714.27875,1814.9552,710.39276,1809.8652,706.83374,1804.7902,703.75226,1799.2628,700.892,1793.6573,698.4554,1788.1707,696.4825,1782.3467,694.8248,1776.6721,693.6053,1771.064,692.7742,1765.2058,692.3064,1759.3077,692.2389,1753.5989,692.5545,1747.9363,693.2504,1742.5159,694.2796,1737.0835,695.6936,1731.7732,697.46515,1726.7296,699.527,1721.8712,701.89874,1717.4226,704.4292" fill="none" stroke="white" stroke-width="3"/>
<path d="M1481.9253,446.24353 C1481.9253,446.24353,1475.9354,448.13446,1470.1025,450.4112,1464.4268,453.077,1459.1765,455.96994,1453.8926,459.3701,1448.9402,463.05164,1444.4534,466.8625,1440.0729,471.12723,1436.1511,475.4815,1432.6028,479.973,1429.2468,484.8661,1426.2212,489.99545,1423.6261,495.15195,1421.3872,500.45917,1419.5619,505.72195,1418.0674,511.18878,1416.9474,516.7286,1416.2156,522.18085,1415.8483,527.62695,1415.826,532.7941,1416.1613,538.18585,1416.8491,543.5068,1417.9084,548.8319" fill="none" stroke="white" stroke-width="3"/>
<path d="M1717.4226,704.4292 C1717.4226,704.4292,1712.9575,707.3775,1708.7273,710.5937,1704.6768,714.1309" fill="none" stroke="white" stroke-width="3"/>
<path d="M1851.666,769.4905 C1851.666,769.4905,1850.1511,762.96954,1848.274,756.74866,1845.8766,750.40265,1843.124,744.3743,1840.1565,738.8428,1836.587,733.16675,1832.8344,727.9941,1828.7573,723.09656,1824.368,718.48987,1819.7886,714.27875,1814.9552,710.39276,1809.8652,706.83374,1804.7902,703.75226,1799.2628,700.892,1793.6573,698.4554,1788.1707,696.4825,1782.3467,694.8248,1776.6721,693.6053,1771.064,692.7742,1765.2058,692.3064,1759.3077,692.2389,1753.5989,692.5545,1747.9363,693.2504,1742.5159,694.2796,1737.0835,695.6936,1731.7732,697.46515,1726.7296,699.527,1721.8712,701.89874,1717.4226,704.4292,1712.9575,707.3775,1708.7273,710.5937,1704.6768,714.1309,1701.074,717.71204,1697.4929,721.80524,1694.2433,726.0853" fill="none" stroke="white" stroke-width="3"/>
<path d="M1955.4138,980.48206 C1955.4138,980.48206,1959.8145,984.60284,1964.12,988.7924,1968.2433,992.9591,1972.266,997.18146,1976.2046,1001.4775,1979.8862,1005.64514,1983.6514,1010.0787,1987.2568,1014.49414,1990.6111,1018.7611,1994.0006,1023.2498,1997.162,1027.604,2000.1652,1031.9052,2003.1853,1036.4135,2006.1213,1040.9868,2008.8766,1045.4644,2011.5342,1049.9747,2014.0173,1054.3751,2016.4524,1058.8905,2018.7887,1063.43,2020.9744,1067.8817,2023.055,1072.3302,2024.9451,1076.5684,2026.8326,1081.0269,2028.6191,1085.4807,2030.3356,1090.0126,2031.8748,1094.3143,2033.427,1098.9415,2034.8666,1103.5331,2036.145,1107.8988,2037.3246,1112.2283,2038.4274,1116.6056,2039.4291,1120.9274,2040.3408,1125.2327,2041.155,1129.4706,2041.8921,1133.7485,2042.521,1137.8516,2043.0776,1142.006,2043.569,1146.3191" fill="none" stroke="white" stroke-width="3"/>
<path d="M1717.4226,704.4292 C1717.4226,704.4292,1712.9575,707.3775,1708.7273,710.5937,1704.6768,714.1309,1701.074,717.71204,1697.4929,721.80524,1694.2433,726.0853,1691.4402,730.33466,1688.9525,734.7082,1686.7458,739.2751,1684.8766,743.907,1683.3293,748.6247,1682.1182,753.35034,1681.2192,758.1849,1680.6595,762.8628,1680.4069,767.6229,1680.4862,772.5699" fill="none" stroke="white" stroke-width="3"/>
<path d="M1602.6633,505.29016 C1602.6633,505.29016,1601.3171,501.79834,1600.1107,498.33685,1598.9922,494.74313,1597.9995,491.1304,1597.1431,487.55325,1596.3992,483.90842,1595.7871,480.30103,1595.295,476.66565,1594.8041,469.07187,1594.8826,461.05258,1595.4064,454.08832,1596.4309,446.96616,1597.8751,440.15594,1599.743,433.53165,1602.0851,426.95636,1604.8264,420.63464,1607.9199,414.62506,1611.2938,408.9987,1615.208,403.3783,1619.3914,398.15665,1623.6626,393.47437,1628.5587,388.79932,1633.5099,384.66232,1638.7106,380.87473,1644.1453,377.449,1649.6683,374.4575,1655.3597,371.84695,1661.2216,369.6199,1666.9508,367.85663,1673.0681,366.42166,1679.1573,365.42062,1685.0157,364.84424,1691.1266,364.65982,1696.983,364.86734,1702.6785,365.43872,1708.5288,366.42755,1714.3195,367.8181,1719.8303,369.53702,1725.2019,371.61676,1730.254,373.96292,1735.2229,376.68878,1739.9839,379.73453,1744.4121,382.99854,1748.5825,386.52026,1752.3125,390.09613,1755.9554,394.0851,1759.3024,398.27835,1762.3942,402.74152,1765.0366,407.13702,1767.5314,412.02844,1769.6555,417.021,1771.3502,421.87317,1772.7053,426.769,1773.7377,431.78476,1774.4237,436.78085,1774.7733,441.78143,1774.7919,446.70673,1774.4779,451.6615,1773.8705,456.37918,1772.9423,461.10153,1771.643,465.9248,1770.146,470.3249,1768.2816,474.786,1766.2434,478.89224,1763.8207,483.03467,1761.2238,486.86523,1758.394,490.49274,1755.3767,493.87344,1752.1305,497.05423,1748.8009,499.91647,1745.7784,502.2293,1743.6992,503.69778,1739.587,506.1752,1735.7301,508.1636" fill="none" stroke="white" stroke-width="3"/>
<path d="M2005.8303,646.32745 C2005.8303,646.32745,2009.4938,642.5781,2012.8904,638.60046,2015.9169,634.54755,2018.7131,630.22705,2021.2053,625.74054,2023.3374,621.223,2025.1525,616.61066,2026.5922,612.14484,2027.7842,607.3864,2028.6516,602.59235,2029.1987,597.6925,2029.4159,593.0404,2029.3013,588.05566,2028.8468,583.14984,2028.1096,578.5413,2027.0823,574.04425,2025.7452,569.5905,2024.1399,565.3018,2022.2637,561.15454,2020.1554,557.2101,2017.7686,553.38544,2015.2495,549.8768,2012.472,546.5026,2009.3544,543.2078,2006.2612,540.3364,2002.8481,537.57465,1999.4491,535.17145,1995.7272,532.9051,1992.0004,530.9631,1988.1752,529.2836,1984.3063,527.8823,1980.3407,526.7395,1976.4458,525.8872,1973.0332,525.34155,1970.7384,525.0642,1966.3839,524.85675,1962.4442,524.9301" fill="none" stroke="white" stroke-width="3"/>
<path d="M1955.4138,980.48206 C1955.4138,980.48206,1959.7672,984.6554,1963.9756,988.9475,1967.9535,993.26025,1971.7786,997.6714,1975.4642,1002.1973,1978.8516,1006.6198,1982.2482,1011.35626,1985.4316,1016.1012,1988.3267,1020.7089,1991.1765,1025.5773,1993.7611,1030.3164,1996.1426,1035.011,1998.4542,1039.943,2000.6132,1044.9547,2002.5519,1049.8663,2004.3304,1054.8162,2005.9025,1059.6445,2007.3466,1064.5955,2008.63,1069.5663,2009.729,1074.432,2010.67,1079.2827,2011.4255,1083.8914,2012.0662,1088.7231,2012.5538,1093.5308,2012.8942,1098.4003,2013.078,1103,2013.1162,1107.919,2012.9983,1112.7689,2012.7466,1117.3497,2012.3605,1121.86,2011.8315,1126.3843,2011.175,1130.814,2010.3887,1135.1873,2009.4868,1139.4514,2008.4469,1143.7119,2007.3307,1147.7555,2006.0792,1151.8033,2004.6495,1155.9534,2003.2067,1159.7668,2001.585,1163.6779,1999.9396,1167.3322,1998.1003,1171.0942,1996.2192,1174.6598,1994.2444,1178.1389,1992.1989,1181.4988,1990.0479,1184.7977,1987.8784,1187.9156,1985.93,1190.5646,1984.5966,1192.312,1981.9779,1195.5145,1979.5277,1198.3306,1976.9944,1201.0669,1974.4084,1203.693,1971.7855,1206.1985,1969.0903,1208.6185,1966.4327,1210.8649,1963.6084,1213.1044,1960.7524,1215.2274,1957.9308,1217.1945,1955.0248,1219.0892,1952.1073,1220.8658,1949.1877,1222.5236,1946.2137,1224.0925,1943.2635,1225.5358,1940.2235,1226.9069" fill="none" stroke="white" stroke-width="3"/>
<path d="M2043.569,1146.3191 C2043.569,1146.3191,2043.9733,1150.3296,2044.3363,1154.4978,2044.6285,1158.446,2044.8771,1162.5736,2045.0634,1166.5485,2045.1954,1170.4935,2045.2738,1174.3724,2045.3002,1178.2552,2045.2769,1181.9988,2045.2197,1185.2382,2045.1649,1187.403,2045.0027,1191.4733,2044.8076,1195.1423,2044.5638,1198.8033,2044.2747,1202.4169,2043.9431,1205.9678,2043.5648,1209.5077,2043.1575,1212.9021,2042.688,1216.4106,2042.1779,1219.8667,2041.641,1223.199,2041.0547,1226.5511,2040.4336,1229.8424,2039.7805,1233.0679,2039.0835,1236.288,2038.3615,1239.4226,2037.5854,1242.5941,2036.8088,1245.5984,2035.9779,1248.644,2035.1072,1251.6744" fill="none" stroke="white" stroke-width="3"/>
<path d="M2043.569,1146.3191 C2043.569,1146.3191,2043.8954,1150.3385,2044.0923,1154.5217,2044.1499,1158.4857,2044.0681,1162.6277,2043.8566,1166.6106,2043.5149,1170.5542,2043.0505,1174.4188,2042.4563,1178.2706,2041.7623,1181.9653,2041.0707,1185.1455,2040.5677,1187.2622,2039.4768,1191.2091,2038.3749,1194.7362,2037.1567,1198.2212,2035.8384,1201.6239,2034.4305,1204.9282,2032.915,1208.1794,2031.3586,1211.2542,2029.6393,1214.3828,2027.8381,1217.4128,2026.0016,1220.2827,2024.0529,1223.1138,2022.042,1225.8358,2019.9778,1228.4446,2017.8239,1230.9869,2015.639,1233.3994,2013.3386,1235.7728,2011.0792,1237.9572,2008.7065,1240.1025,2006.2648,1242.1652,1995.853,1248.8054,1993.3569,1250.2875,1990.6891,1251.7521" fill="none" stroke="white" stroke-width="3"/>
<path d="M2253.6357,900 C2253.6357,900,2256.802,899.7908,2260.0012,899.3606,2263.0146,898.75415,2266.039,897.9323,2269.0042,896.90796,2279.3025,889.9317,2281.6174,888.1382,2283.9163,886.0951,2286.008,883.9737,2287.9417,881.73535,2289.7158,879.3837,2291.3704,876.8462,2292.7917,874.3146" fill="none" stroke="white" stroke-width="3"/>
<path d="M1990.6891,1251.7521 C1990.6891,1251.7521,1988.0636,1253.0828,1985.4192,1254.3152,1982.7507,1255.4529,1979.973,1256.5261,1977.2826,1257.4645" fill="none" stroke="white" stroke-width="3"/>
<path d="M1738.7421,900 C1738.7421,900,1747.2098,899.42664,1755.3961,898.3236,1763.4257,896.694,1771.3472,894.5253,1779.0714,891.8412,1785.2598,889.2986,1788.8663,887.676,1792.445,885.9205,1795.9156,884.0733,1799.3503,882.0952,1802.682,880.02606,1805.9136,877.86786,1809.0328,875.63336,1812.0796,873.2951,1815.0336,870.86926,1817.9595,868.2963,1820.758,865.6644,1823.4067,863.00446,1826.0133,860.2048,1828.61,857.2126,1830.9713,854.3017,1833.233,851.31555,1835.3718,848.28827,1837.3691,845.2562,1839.3141,842.0759,1841.1427,838.84686,1842.8319,835.61896,1844.4293,832.29877,1845.8911,828.9826,1847.2445,825.6105,1849.5559,818.4366,1851.4235,810.716,1852.6077,803.9008,1853.3492,796.8126,1853.6122,789.92236,1853.4232,783.10803,1852.7671,776.2259,1851.666,769.4905,1850.1511,762.96954,1848.274,756.74866,1845.8766,750.40265,1843.124,744.3743,1840.1565,738.8428,1836.587,733.16675,1832.8344,727.9941,1828.7573,723.09656,1824.368,718.48987,1819.7886,714.27875,1814.9552,710.39276,1809.8652,706.83374,1804.7902,703.75226,1799.2628,700.892,1793.6573,698.4554,1788.1707,696.4825,1782.3467,694.8248,1776.6721,693.6053,1771.064,692.7742,1765.2058,692.3064,1759.3077,692.2389,1753.5989,692.5545,1747.9363,693.2504,1742.5159,694.2796,1737.0835,695.6936,1731.7732,697.46515,1726.7296,699.527,1721.8712,701.89874,1717.4226,704.4292,1712.9575,707.3775,1708.7273,710.5937,1704.6768,714.1309,1701.074,717.71204,1697.4929,721.80524,1694.2433,726.0853,1691.4402,730.33466,1688.9525,734.7082,1686.7458,739.2751,1684.8766,743.907,1683.3293,748.6247,1682.1182,753.35034,1681.2192,758.1849,1680.6595,762.8628,1680.4069,767.6229,1680.4862,772.5699,1680.8578,777.1583,1681.5674,781.89435,1682.53,786.33167,1683.8531,790.8969,1685.4192,795.2049,1687.2579,799.3742,1689.3367,803.352,1691.6836,807.19324,1694.1877,810.7487,1696.5302,813.7022,1698.1713,815.6163,1701.5203,818.9918,1704.7426,821.8359,1708.15,824.46045,1711.6895,826.8286,1715.3257,828.92725,1719.0952,830.77924,1722.8302,832.3229,1726.8055,833.6588,1730.8175,834.71185,1734.7606,835.47345,1738.7874,835.9742,1742.7832,836.2023,1746.7236,836.16614,1750.6658,835.8656,1754.495,835.3178,1758.3438,834.4985,1761.9506,833.48206,1765.5507,832.2028,1769.0598,830.6829,1780.9312,821.2487,1783.579,818.8541,1786.1838,816.15765,1788.5299,813.3852,1790.6727,810.4852,1792.6113,807.46234,1794.3873,804.22455,1795.8804,801.01556,1797.1279,797.80426,1798.192,794.3968,1798.9978,791.0604,1799.5885,787.60504" fill="none" stroke="white" stroke-width="3"/>
<path d="M2253.6357,900 C2253.6357,900,2256.802,900.2092,2260.0012,900.6394,2263.0146,901.24585,2266.039,902.0677,2269.0042,903.09204,2279.3025,910.0683,2281.6174,911.8618,2283.9163,913.9049,2286.008,916.0263,2287.9417,918.26465,2289.7158,920.6163,2291.3704,923.1538,2292.7917,925.6854,2294.0125,928.23425,2295.0952,930.95496,2295.9624,933.6336,2296.661,936.42303,2297.1619,939.2,2297.4724,941.95844,2297.5981,944.71655,2297.5447,947.4106,2297.3018,950.1737,2296.8984,952.78894" fill="none" stroke="white" stroke-width="3"/>
<path d="M1977.2826,1257.4645 C1977.2826,1257.4645,1974.6101,1258.2059,1971.7952,1258.7847,1969.058,1259.1621,1966.2427,1259.3578,1963.4734,1259.3646,1960.7548,1259.1907,1958.0681,1258.8383,1955.4742,1258.3236,1952.8462,1257.614,1950.3885,1256.775,1947.9127,1255.737,1945.6292,1254.5997,1943.6838,1253.4866,1942.6018,1252.8193,1941.5375,1252.1132" fill="none" stroke="white" stroke-width="3"/>
<path d="M1417.9084,548.8319 C1417.9084,548.8319,1419.2314,553.78705,1421.0135,558.9807,1423.126,563.9782,1425.436,568.56946,1428.0135,572.94696,1430.9016,577.1758,1434.0164,581.1419,1437.3682,584.86926,1440.8959,588.3064,1444.676,591.5249,1448.4897,594.3677,1452.5298,596.9831,1456.9004,599.40186,1461.1041,601.3844,1465.607,603.14526,1469.9758,604.5344,1474.6378,605.6723,1479.1968,606.4682,1483.7715,606.9556,1488.2993,607.1366,1492.8425,607.01404,1497.2146,606.6101,1500.9783,606.04504,1503.4792,605.5711,1508.1187,604.33716,1512.2291,602.9467,1516.2406,601.2838,1520.094,599.37646,1523.7601,597.2488,1527.2773,594.8803,1530.5072,592.387,1533.6761,589.57886,1536.616,586.5963,1539.266,583.5275,1541.7296,580.25433,1543.9391,576.87103,1545.8894,573.40326,1547.6091,569.801,1549.0555,566.1733,1550.2742,562.39185,1551.1985,558.72314,1551.8894,554.9281,1552.3239,551.0916,1550.0359,535.95404,1549.2714,532.4317,1548.221,528.7951,1546.9738,525.34686,1545.5128,522.0123,1543.8416,518.7948,1541.9004,515.6115,1539.8422,512.6904,1537.6584,509.98315,1535.2107,507.33774,1532.6952,504.95428,1529.9673,502.69925,1527.1484,500.67035,1524.2493,498.86276,1521.2526,497.26053,1518.2319,495.8914,1515.034,494.6961,1511.9155,493.75723,1508.6332,493.00797,1505.4744,492.50043,1502.678,492.21515,1501.0875,492.10553,1499.4867,492.04843,1497.8759,492.04498,1496.295,492.0938,1494.7263,492.19415,1493.1582,492.34683,1491.5923,492.55234,1490.0568,492.80582" fill="none" stroke="white" stroke-width="3"/>
<path d="M1275.8466,889.1332 C1275.8466,889.1332,1288.1436,887.02356,1300.6129,884.37305,1313.3739,881.10516,1325.3763,877.5198,1337.012,873.5407,1348.502,869.0953,1360.023,864.08826,1370.9734,858.8006,1381.7073,853.0736,1391.8563,847.1353,1401.91,840.69617,1411.7456,833.8146,1420.7676,826.9645,1429.731,819.5714,1438.0839,812.11346,1446.4277,804.02435,1454.1888,795.8714,1461.5049,787.5452,1468.4934,778.91345,1474.8354,770.4268,1481.0415,761.37854,1486.7805,752.2433,1491.3202,744.4407,1493.8419,739.90375,1496.2714,735.3227,1498.5995,730.7155,1500.8545,726.0223,1503.0995,721.0885,1505.0834,716.4941,1507.0564,711.65686,1508.8313,707.05334,1510.6437,702.04254,1512.1501,697.6244,1518.6699,663.46173,1519.8052,656.3995,1520.8649,647.9125,1521.6825,638.1457,1522.0978,628.644,1522.1368,619.3056,1521.7948,609.8554,1521.0835,600.55676,1520.0106,591.3884,1518.644,582.6573,1516.8237,573.51526,1514.7997,565.07434,1512.3568,556.44305,1509.6361,548.1135,1506.5543,539.8337,1503.2411,531.9122,1499.6495,524.2028,1495.7471,516.6368,1491.5668,509.27722,1487.9518,503.37885,1485.7472,499.93625,1483.457,496.51282,1481.1326,493.18268,1478.7231,489.87436,1476.2751,486.65012,1473.7875,483.50528,1471.2715,480.4501,1468.694,477.4435,1466.0709,474.50357,1463.338,471.56265,1460.5867,468.71854,1457.8451,465.99393,1454.997,463.27527,1451.99,460.5231,1449.0947,457.97742,1446.152,455.4925,1443.1929,453.0929,1440.25,450.80035,1437.1826,448.50873,1434.0848,446.29044,1431.002,444.1743,1427.8427,442.09833,1424.6962,440.11957,1421.5033,438.20013,1414.7296,434.50626,1407.4371,430.94232,1400.9785,428.09387,1394.2203,425.43634,1387.5941,423.12994,1380.9673,421.1134,1374.1794,419.34424,1367.4235,417.8708,1360.7534,416.69177,1354.2485,415.80124,1347.4353,415.1512,1340.7689,414.78546,1334.454,414.6823,1327.7201,414.85132,1321.3226,415.267,1314.974,415.9353,1308.6758,416.8558,1302.5669,417.99768,1296.5358,419.37573,1290.565,420.99518,1284.9287,422.7609,1279.1102,424.84885,1273.4918,427.12592,1268.2279,429.502,1262.8741,432.18652,1257.8547,434.956,1253.0668,437.84534,1248.2361,441.03424,1243.5298,444.4258,1239.1094,447.8885,1234.8473,451.51318,1230.8718,455.17245,1226.9857,459.04965,1223.2753,463.06393,1219.8264,467.1057,1216.5707,471.24295,1213.6428,475.26813,1210.7561,479.58893,1208.0664,483.98495,1205.5316,488.53406,1203.3085,492.91486,1201.13,497.69305,1199.179,502.49265,1197.5154,507.10266,1196.0549,511.71426,1194.773,516.4118,1193.6978,521.07794,1192.8168,525.7486,1192.1346,530.36206,1191.6356,535.0296,1191.3322,539.5107,1191.2053,544.0469,1191.2689,548.7493,1191.4979,553.11316,1191.9204,557.6326,1192.4869,561.8931,1193.2617,566.3183,1194.1775,570.5465,1195.2539,574.7041,1196.4744,578.74805,1197.8584,582.7458,1199.3435,586.5476,1200.7412,589.7937,1201.7252,591.94183,1203.7526,595.9015,1205.7231,599.39996,1207.8309,602.8142,1210.0483,606.1038,1212.3584,609.25305,1214.7903,612.3039,1217.2395,615.1425,1219.8948,617.9783,1222.6285,620.6703,1225.3726,623.1665,1228.2404,625.5715,1231.1576,627.8252,1234.1116,629.92535,1237.1532,631.9088,1240.1995,633.7275,1243.3663,635.4476,1246.4395,636.9647,1249.6277,638.3828,1252.8689,639.67017,1266.0754,642.5965,1269.2047,643.1652,1272.5077,643.6283,1275.7181,643.9496,1278.9111,644.14197,1282.0918,644.20703,1285.3577,644.13934,1288.4783,643.9504,1291.5023,643.6485,1294.6158,643.209,1297.5863,642.6694,1300.591,641.9964,1303.5062,641.2192,1306.3373,640.3422,1309.1122,639.3596,1311.7769,638.29645,1314.4691,637.0929,1316.987,635.8467,1319.5314,634.45526,1321.8925,633.04144,1323.9205,631.7296,1325.0554,630.9633,1326.1798,630.1711,1327.294,629.3521,1328.3712,628.52686,1329.4252,627.68585,1330.4641,626.8224,1331.4877,625.9364,1332.4784,625.04376,1333.4489,624.13385,1334.3993,623.20636,1335.3257,622.2655,1336.2179,621.3229,1337.0952,620.35834,1338.0057,619.3134" fill="none" stroke="white" stroke-width="3"/>
<path d="M1338.0057,619.3134 C1338.0057,619.3134,1338.8611,618.39355,1339.7653,617.4834,1340.7009,616.6022,1341.6554,615.761,1342.617,614.9677,1343.6931,614.14233,1344.731,613.40045,1345.7513,612.72,1346.8123,612.06226,1347.9,611.4373,1348.9945,610.8561,1350.117,610.30756,1351.2457,609.80206" fill="none" stroke="white" stroke-width="3"/>
<path d="M1797.5616,891.9644 C1797.5616,891.9644,1801.332,890.8876,1805.0253,889.69867,1808.6438,888.4003,1812.1727,887.0019,1815.6569,885.48645,1819.0729,883.86475,1822.4972,882.09515,1825.8134,880.23846,1828.9923,878.31903,1832.1643,876.2554,1835.3729,874.0046,1838.3362,871.7755,1841.2218,869.4503,1843.9994,867.0562,1846.6422,864.6237,1849.2703,862.0364,1851.7983,859.3744,1854.1923,856.6801,1856.5203,853.87537,1858.717,851.042,1860.8231,848.12897,1864.7585,841.79584,1868.3988,834.8318,1871.1665,828.57324,1873.5747,821.9468,1875.476,815.3957,1876.9253,808.8093,1877.9424,802.0461,1878.4973,795.31726,1878.6036,788.69525,1878.2905,782.2746,1877.5079,775.6093,1876.3085,769.16406,1874.7837,763.1441,1872.7157,756.8415,1870.3513,750.9782,1867.6099,745.3014,1864.499,739.82904,1861.111,734.6909,1857.4014,729.8041,1853.3672,725.16974,1849.233,720.9973,1844.6118,716.9291,1839.8143,713.2487,1835.0198,710.04193,1829.826,707.057,1824.6708,704.5283,1819.4863,702.3884,1813.975,700.5375,1808.3296,699.0612,1802.774,697.998,1797.172,697.31085,1791.7227,697.0016,1786.1697,697.0589,1780.6484,697.48865,1775.3137,698.26086,1770.0825,699.3749,1765.2068,700.7393,1760.2152,702.50085,1755.3849,704.57574,1750.6503,707.00183,1746.335,709.5772,1741.918,712.6493,1737.7744,715.9801,1734.0668,719.38824,1730.6323,722.9911,1727.4213,726.8468,1724.5186,730.84564,1721.9044,735.00397,1719.611,739.2503,1717.5912,743.6759,1715.9344,748.0323,1714.5527,752.5411,1713.4451,757.30865,1712.7037,761.802,1712.2515,766.51794,1712.1136,771.00775,1712.2913,775.7066,1712.7635,780.2166,1713.5308,784.6588,1714.5742,788.97455,1715.9078,793.22345,1717.4608,797.23566,1719.0024,800.6313,1720.1196,802.8613,1722.5265,806.90295,1724.939,810.4041,1727.5817,813.7389,1730.4125,816.85913,1733.4008,819.74384,1736.5759,822.4237,1739.7917,824.79926,1743.288,827.0329,1746.8871,829.00385,1750.4897,830.6785,1754.2351,832.1228,1758.0161,833.298,1761.8073,834.2063,1765.6633,834.8612,1769.4701,835.2518,1773.3606,835.38635,1777.066,835.2738,1780.828,834.9074,1784.5602,834.28827,1798.2131,828.0733,1801.3278,826.4083,1804.4735,824.44336,1807.3889,822.34344,1810.1399,820.0726,1812.7242,817.6348,1815.2039,814.9519,1817.405,812.22894,1819.371,809.44495,1821.2079,806.4288,1822.7798,803.41907,1824.1737,800.2436,1825.3301,797.04297,1826.2563,793.826,1826.9629,790.57214,1827.4434,787.3583,1827.7124,784.0239,1827.7611,780.8331,1827.5873,777.5388,1827.2186,774.42566,1826.7378,771.7137,1826.4147,770.18536,1826.0393,768.6613,1825.6107,767.1422,1825.1409,765.6655,1824.6257,764.2139,1824.0614,762.77704,1823.4479,761.3563,1822.7972,759.9771,1822.1028,758.62305,1821.3646,757.2947,1820.5869,755.9986,1819.7808,754.7499,1818.9296,753.5226,1817.9786,752.25024,1817.0802,751.12555,1816.1251,750.0078,1815.1315,748.9204,1814.1129,747.8772,1813.0823,746.8881,1811.9232,745.85254,1810.8009,744.9156,1809.6932,744.05035,1808.5374,743.20764,1807.3479,742.4001,1806.1471,741.64185,1804.9114,740.91864,1803.6649,740.244,1802.4054,739.61584,1801.1622,739.0456,1799.8821,738.5091,1798.5865,738.01624,1797.2745,737.56683,1795.9541,737.1634,1794.6405,736.8092,1793.336,736.5029,1792.0065,736.2372,1790.6802,736.01764,1789.3447,735.84216,1788.0249,735.7129" fill="none" stroke="white" stroke-width="3"/>
<path d="M1137.0477,900 C1137.0477,900,1144.3838,900.2483,1151.47,900.7218,1167.7048,903.0627,1181.7377,906.0636,1195.3152,909.9324,1208.3994,914.61926,1221.1908,920.1962,1264.4102,954.66223,1274.0952,963.4534,1283.3914,973.0808,1292.3054,983.68085,1300.1105,994.312,1307.0848,1005.2413,1313.3431,1016.64386,1318.9283,1028.6947,1323.5555,1040.7102,1327.3746,1053.0323,1330.2836,1065.1742,1332.4078,1077.6903,1333.6853,1090.4094,1334.1118,1102.4812,1333.718,1114.8826,1332.5587,1126.8005,1330.5107,1139.0764,1327.7339,1150.8247,1324.2333,1162.202,1319.9624,1173.3573,1315.203,1183.7272,1309.552,1194.1245,1303.3141,1203.9666,1297.6313,1211.9016,1294.2151,1216.3566,1290.6569,1220.694,1286.9735,1224.8947,1283.1178,1229.0073,1278.9556,1233.1481,1274.99,1236.8461,1270.7205,1240.5653,1266.5759,1243.9475,1261.9734,1247.4432,1257.848,1250.3812,1222.3195,1264.9063,1214.8702,1267.5369,1205.7842,1270.1583,1195.1772,1272.454,1184.7446,1273.9965,1174.4094,1274.8358,1163.895,1274.9812,1153.5245,1274.4304,1143.3043,1273.1992,1133.6033,1271.3892,1123.5109,1268.7777,1114.2771,1265.7402,1104.9542,1261.9603,1096.1,1257.6654,1087.473,1252.7347,1079.4132,1247.3899,1071.7876,1241.5704,1064.5511,1235.2384,1057.786,1228.4641,1052.5664,1222.6238,1049.5963,1219.0718,1046.7236,1215.3939,1044.0115,1211.6747,1041.4042,1207.8359,1038.9518,1203.9539,1036.6504,1200.0292,1034.5063,1196.0815,1032.4917,1192.0616,1030.6195,1187.997,1028.852,1183.7916,1027.2489,1179.5892,1025.818,1175.4338,1024.5028,1171.1528,1023.2964,1166.6741,1022.29626,1162.4012,1021.43964,1158.1,1020.73346,1153.8181,1020.1788,1149.6036,1019.755,1145.2598,1019.4787,1140.924,1019.3487,1136.6605,1019.3624,1132.3468,1019.5171,1128.1067,1019.81445,1123.863,1021.0453,1115.125,1023.023,1106.038,1025.2579,1098.2538,1028.0985,1090.4082,1031.3422,1083.0156,1035.0232,1075.934,1039.231,1069.0195,1043.8324,1062.487,1048.7601,1056.392,1053.916,1050.7981,1059.6841,1045.3383,1065.6638,1040.3945,1071.6162,1036.0839,1078.2765,1031.9286,1084.8726,1028.3972,1091.6697,1025.3214,1098.6472,1022.71155,1105.6229,1020.61554,1112.7,1018.99176,1119.8802,1017.8435,1126.8008,1017.1907,1134.0847,1017.002,1141.2345,1017.29944,1148.0222,1018.02466,1155.0042,1019.25433,1161.605,1020.86914,1167.9373,1022.8592,1174.3473,1025.3597,1180.5947,1028.3024,1186.4473,1031.5519,1192.0566,1035.1783,1197.2406,1039.0321,1202.2405,1043.2974,1206.9291,1047.8768,1211.1884,1052.6259,1215.0942,1057.6067,1218.4874,1062.5453,1221.6844,1067.9325,1224.4972,1073.4819,1226.9567,1079.2777,1228.922,1084.8909,1230.6028,1091.0323,1231.8389,1097.2014,1232.6205,1103.11,1233.0062,1108.9882,1232.9972,1114.9264,1232.5995,1120.7607,1231.8187,1126.521,1230.6799,1132.1178,1229.1565,1137.6698,1227.3558,1142.8834,1225.1898,1148.0269,1222.5786,1153.1974,1219.8427,1157.841,1216.6752,1162.4673,1213.3938,1166.6497,1209.6674,1170.7826,1205.8165,1174.5204,1201.7493,1177.9729,1197.5271,1181.101,1193.092,1183.9481,1188.6373,1186.414,1184.6608,1188.3282,1181.954,1189.506,1176.7014,1191.3506,1171.8538,1192.7001,1166.9233,1193.7238,1161.9849,1194.4099,1157.0822,1194.7626,1152.165,1194.7874,1147.4419,1194.505,1142.5718,1193.881,1137.8075,1192.9403,1133.2648,1191.7278,1128.7672,1190.1978,1124.4415,1188.3962,1120.3091,1186.3447,1116.3099,1184.0138,1112.5562,1181.4802,1108.9204,1178.6505,1105.6404,1175.7368,1102.5016,1172.5498,1099.5817,1169.1558,1091.897,1153.152,1090.3313,1149.2766,1088.9651,1145.1052,1087.9104,1140.986,1087.1349,1136.8363,1086.6373,1132.6615,1086.4209,1128.3434,1086.4878,1124.2002,1086.8145,1120.18,1087.4346,1116.0469,1088.2905,1112.1207,1089.434,1108.1791,1090.8121,1104.3948,1092.4117,1100.7703,1094.2389,1097.2788,1096.241,1093.9952,1098.5265,1090.7627,1100.9032,1087.8278,1103.5607,1084.9677,1106.2576,1082.4198,1108.752,1080.3215,1110.2051,1079.1786,1111.7024,1078.0792,1113.2443,1077.0248,1114.7914,1076.04,1116.3607,1075.1125,1117.9635,1074.2357,1119.5986,1073.4109,1121.236,1072.6519,1122.8942,1071.949,1124.5725,1071.3026,1126.2622,1070.7155,1127.9418,1070.193,1129.6461,1069.7241,1131.4751,1069.29,1133.1444,1068.9502,1134.8599,1068.6597,1136.5873,1068.4259,1138.304,1068.2512,1139.9905,1068.1349,1141.8289,1068.0737,1143.5592,1068.0743,1145.2218,1068.1289,1146.911,1068.2406,1148.604,1068.4097,1150.2699,1068.6321,1151.9409,1068.9127,1153.5848,1069.2458,1155.2054,1069.631,1156.7672,1070.0563,1158.3369,1070.5403,1159.8875,1071.0756,1161.42,1071.6628,1162.9254,1072.2982,1164.3872,1072.9731,1165.8043,1073.6847,1167.2135,1074.4521,1168.5846,1075.259,1169.9307,1076.1129,1171.2274,1076.997,1172.4867,1077.9176,1173.7206,1078.8844,1174.9967,1079.9597,1176.1519,1081.0009,1177.2666,1082.0751,1178.339,1083.1796,1179.378,1084.3242,1180.3651,1085.4872,1181.3065,1086.6742,1182.2026,1087.8844,1183.0571,1089.1223,1183.8679,1090.385,1184.6188,1091.643,1185.3392,1092.947,1186.0143,1094.2717,1186.6406,1095.6096" fill="none" stroke="white" stroke-width="3"/>
<path d="M1799.5885,787.60504 C1799.5885,787.60504,1799.9401,784.1831,1800.0619,780.8014,1799.9592,777.4372,1799.6447,774.1675,1799.0933,770.8313,1798.3608,767.6898,1797.3848,764.5012,1796.262,761.53796,1795.1272,758.9956,1794.4365,757.5756,1793.6957,756.1726,1792.9038,754.7875,1792.0819,753.454,1791.2217,752.1562,1790.3168,750.8848,1789.3677,749.6414,1788.3923,748.44775,1787.38,747.2895,1786.3312,746.1671,1785.2515,745.08606,1784.1555,744.0585,1783.0205,743.06287,1781.7767,742.0475,1780.6205,741.16406,1779.4104,740.30133,1778.1699,739.4778,1776.9158,738.7036,1775.663,737.98553,1774.273,737.25323,1772.943,736.6087,1771.645,736.0309,1770.3052,735.487,1768.9412,734.9858,1767.578,734.53577,1766.1892,734.12854,1764.8016,733.77167,1763.4127,733.4635,1762.054,733.2082,1760.6672,732.99506,1759.2761,732.8284,1757.8794,732.70844,1756.4857,732.6356,1755.1107,732.60944,1753.7565,732.62805,1752.3875,732.6925,1751.033,732.80145,1749.6802,732.9559,1748.3541,733.1518,1747.0432,733.3899,1745.7345,733.6729,1744.353,734.02356,1743.0771,734.39307,1741.8201,734.80304,1740.5842,735.25214,1739.359,735.7445,1738.1669,736.2703,1737.0009,736.83154,1735.861,737.4275,1734.7429,738.0603,1733.6492,738.72845,1732.6033,739.4153,1731.5635,740.1489,1730.5509,740.9153,1729.5708,741.7099,1728.615,742.5398,1727.7006,743.3888,1726.8185,744.2643,1725.9736,745.16046,1725.1588,746.08453,1724.3981,747.0061,1723.6604,747.9622,1722.953,748.94495,1722.2781,749.9518,1721.639,750.9777" fill="none" stroke="white" stroke-width="3"/>
<path d="M1799.5885,787.60504 C1799.5885,787.60504,1799.9401,784.1831,1800.0619,780.8014,1799.9592,777.4372,1799.6447,774.1675,1799.0933,770.8313,1798.3608,767.6898,1797.3848,764.5012,1796.262,761.53796,1795.1272,758.9956,1794.4365,757.5756,1793.6957,756.1726,1792.9038,754.7875,1792.0819,753.454,1791.2217,752.1562,1790.3168,750.8848,1789.3677,749.6414,1788.3923,748.44775,1787.38,747.2895,1786.3312,746.1671,1785.2515,745.08606,1784.1555,744.0585,1783.0205,743.06287,1781.7767,742.0475,1780.6205,741.16406,1779.4104,740.30133,1778.1699,739.4778,1776.9158,738.7036,1775.663,737.98553,1774.273,737.25323,1772.943,736.6087,1771.645,736.0309,1770.3052,735.487,1768.9412,734.9858,1767.578,734.53577,1766.1892,734.12854,1764.8016,733.77167,1763.4127,733.4635,1762.054,733.2082,1760.6672,732.99506,1759.2761,732.8284,1757.8794,732.70844,1756.4857,732.6356,1755.1107,732.60944,1753.7565,732.62805,1752.3875,732.6925,1751.033,732.80145,1749.6802,732.9559,1748.3541,733.1518,1747.0432,733.3899,1745.7345,733.6729,1744.353,734.02356,1743.0771,734.39307,1741.8201,734.80304,1740.5842,735.25214,1739.359,735.7445,1738.1669,736.2703,1737.0009,736.83154,1735.861,737.4275,1734.7429,738.0603,1733.6492,738.72845,1732.6033,739.4153,1731.5635,740.1489,1730.5509,740.9153,1729.5708,741.7099,1728.615,742.5398,1727.7006,743.3888,1726.8185,744.2643,1725.9736,745.16046,1725.1588,746.08453,1724.3981,747.0061,1723.6604,747.9622,1722.953,748.94495,1722.2781,749.9518,1721.639,750.9777,1721.0306,752.0323,1720.4658,753.09204" fill="none" stroke="white" stroke-width="3"/>
<path d="M1186.6406,1095.6096 C1186.6406,1095.6096,1187.2235,1096.9722,1187.753,1098.3337,1188.2349,1099.7067,1188.667,1101.0824,1189.0531,1102.4722,1189.3837,1103.8317,1189.6722,1105.2158,1189.9153,1106.6125,1190.1118,1108.018,1190.2607,1109.4253,1190.3627,1110.847,1190.4161,1112.252,1190.4225,1113.6522,1190.3821,1115.0446,1190.2957,1116.4258,1190.1635,1117.799,1189.986,1119.1622,1189.7649,1120.5073" fill="none" stroke="white" stroke-width="3"/>
<path d="M1189.7649,1120.5073 C1189.7649,1120.5073,1189.4991,1121.843,1189.2025,1123.1171,1188.8558,1124.4099,1188.4764,1125.6603,1188.0474,1126.9214,1187.5964,1128.1188,1187.0704,1129.3816,1186.5199,1130.5872,1185.9299,1131.7716,1185.3105,1132.9177,1184.6517,1134.0446,1183.9625,1135.1378,1183.2468,1136.194,1182.4796,1137.2472,1181.7205,1138.2216,1180.9064,1139.1973,1180.0647,1140.1401,1179.1974,1141.0488,1178.307,1141.9216,1177.3916,1142.7611" fill="none" stroke="white" stroke-width="3"/>
<path d="M1940.2235,1226.9069 C1940.2235,1226.9069,1937.2838,1228.0972,1934.2446,1229.1881,1931.1654,1230.1548,1918.7777,1231.9534,1915.851,1232.2645,1912.7711,1232.4663,1909.7864,1232.5436,1906.8265,1232.503,1903.8867,1232.3458,1900.8773,1232.0603,1898.0103,1231.6727,1895.2401,1231.1876,1892.3967,1230.5693,1889.6923,1229.8684,1886.9653,1229.0421,1884.328,1228.1257,1881.7751,1227.123,1879.2814,1226.0267,1876.8948,1224.8635,1874.4924,1223.569,1872.2539,1222.247,1870.0009,1220.7891,1867.9185,1219.323,1866.1365,1217.9739,1865.1414,1217.1892,1864.1577,1216.3813,1863.1854,1215.5494,1862.2476,1214.7142,1861.3323,1213.8661,1860.4324,1212.9983,1859.5483,1212.1107,1858.695,1211.2192,1857.8616,1210.3132,1857.0479,1209.3923,1856.2572,1208.4607,1855.4982,1207.5298,1854.7544,1206.5797,1853.9855,1205.5532,1853.3069,1204.61,1852.6333,1203.6333,1851.9784,1202.6418,1851.35,1201.6482,1850.7537,1200.6631,1850.128,1199.5781,1849.5605,1198.5463,1849.0345,1197.5442,1848.5198,1196.5142,1848.0236,1195.4692,1847.5542,1194.4277,1847.1025,1193.3688,1846.6768,1192.3121,1846.2751,1191.255,1845.9052,1190.2206,1845.5508,1189.164,1845.2183,1188.1023,1844.9071,1187.0339,1844.6188,1185.9647,1844.3558,1184.906,1844.1176,1183.8589,1843.8977,1182.795,1843.7008,1181.7365,1843.5249,1180.6724,1843.3726,1179.622,1843.242,1178.5754,1843.1317,1177.5217,1843.0385,1176.3983,1842.9725,1175.3502,1842.9277,1174.3062,1842.904,1173.2676,1842.9012,1172.2247,1842.9191,1171.1962,1842.957,1170.1755,1843.0149,1169.1624,1843.0929,1168.1521,1843.1908,1167.1464,1843.3055,1166.1669,1843.4421,1165.1737,1843.5983,1164.1859,1843.7731,1163.2081,1843.9681,1162.2312,1844.1796,1161.2726,1844.409,1160.3225,1844.6552,1159.386,1844.9199,1158.4547,1845.1942,1157.5569,1845.4893,1156.6555,1845.8029,1155.758,1846.1346,1154.8666,1846.4832,1153.9847,1846.852,1153.1041,1847.2332,1152.2433,1847.6298,1151.394,1848.041,1150.5577,1848.4661,1149.7355,1848.906,1148.9248,1849.3605,1148.1262,1849.8267,1147.3439,1850.308,1146.572,1850.7844,1145.84,1851.2865,1145.1011,1851.7905,1144.3896,1852.3186,1143.675,1852.8387,1142.9989,1853.4095,1142.288,1853.9762,1141.6107,1854.5553,1140.9464,1855.1382,1140.3041,1855.7349,1139.6727,1856.3378,1139.0598,1856.9447,1138.4669,1857.5767,1137.8743,1858.1863,1137.3245,1858.8243,1136.7717,1859.4697,1136.235,1860.1215,1135.7146,1860.7782,1135.2113,1861.4421,1134.7233,1862.119,1134.2465,1862.7734,1133.8041,1863.4596,1133.3601,1864.1288,1132.9454" fill="none" stroke="white" stroke-width="3"/>
<path d="M1338.0057,619.3134 C1338.0057,619.3134,1338.8,618.34033,1339.578,617.32025,1340.323,616.2729,1341.0258,615.2123,1341.68,614.1513,1342.3505,612.97235,1342.9435,611.8428,1343.478,610.7389,1343.9845,609.59796,1344.4547,608.43494,1344.8809,607.27124,1345.2708,606.0843,1345.6172,604.89703,1345.9216,603.7072,1346.1796,602.542,1346.402,601.35144,1346.5844,600.1558,1346.7266,598.9541,1346.828,597.7536,1346.8888,596.568,1346.9103,595.399,1346.8926,594.216,1346.8362,593.0444,1346.7405,591.8729,1346.6082,590.7233,1346.4391,589.58563,1346.2312,588.44867,1345.9669,587.247,1345.6835,586.1359,1345.3646,585.0399,1345.0115,583.9612,1344.6206,582.89044,1344.2,581.8473,1343.748,580.82574,1343.2655,579.82574,1342.7505,578.8435,1342.2043,577.8813,1341.6407,576.95984,1341.0366,576.04236,1340.4034,575.1475,1339.745,574.2799,1339.0555,573.4322,1338.3484,572.6196,1337.6174,571.8343,1336.8677,571.08044,1336.093,570.3518,1335.319,569.66986,1334.5145,569.00684,1333.6863,568.3692,1332.8363,567.759,1331.9689,567.17914,1331.0759,566.625,1330.1772,566.1083,1329.2655,565.62396,1328.3429,565.17285,1327.4117,564.75555,1326.4701,564.3709,1325.5194,564.0193,1324.5657,563.70233,1323.6027,563.4177,1322.6693,563.17444,1321.7065,562.95734,1320.7603,562.7761,1319.7899,562.6237,1318.8538,562.5074,1317.8491,562.41766,1316.8734,562.3635,1315.898,562.3424,1314.9375,562.35364,1313.9761,562.3972,1313.0261,562.47217,1312.0913,562.57715,1311.1407,562.71674,1310.2444,562.8782,1309.3284,563.07495,1308.4243,563.301,1307.5338,563.55554,1306.6588,563.8374,1305.797,564.14703,1304.9417,564.4871,1304.1362,564.8378,1303.3152,565.2285,1302.5366,565.6304,1301.7516,566.06946,1300.9851,566.53235,1300.2318,567.02264" fill="none" stroke="white" stroke-width="3"/>
<path d="M1300.2318,567.02264 C1300.2318,567.02264,1299.5033,567.53235,1298.812,568.0504,1298.1241,568.60284,1297.4624,569.1716,1296.8135,569.7685,1296.1862,570.3861,1295.5828,571.02185,1295.0077,571.67017,1294.4768,572.3092,1293.9531,572.9844" fill="none" stroke="white" stroke-width="3"/>
<path d="M1300.2318,567.02264 C1300.2318,567.02264,1299.5033,567.53235,1298.812,568.0504,1298.1241,568.60284,1297.4624,569.1716,1296.8135,569.7685,1296.1862,570.3861,1295.5828,571.02185,1295.0077,571.67017,1294.4768,572.3092,1293.9531,572.9844,1293.4686,573.65283,1292.9904,574.3618,1292.5425,575.07623,1292.0928,575.85425,1291.2832,577.5335,1290.6699,579.05725,1290.1667,580.5926,1289.7648,582.1688" fill="none" stroke="white" stroke-width="3"/>
<path d="M1864.1288,1132.9454 C1864.1288,1132.9454,1864.8296,1132.5428,1865.5402,1132.1656,1866.2657,1131.8112,1866.995,1131.4847,1867.7135,1131.1909,1868.4568,1130.9156,1869.2006,1130.668,1869.9602,1130.4432,1870.7258,1130.2446,1871.4944,1130.0729,1872.2596,1129.9287,1872.9973,1129.8143,1873.7595,1129.7222,1874.4984,1129.6571,1875.2657,1129.6156,1876.0232,1129.6001,1876.8306,1129.6124,1878.4988,1129.7633,1879.9565,1129.9938,1881.3724,1130.3145,1882.7732,1130.7319,1884.126,1131.2355,1885.4241,1131.8191,1886.6833,1132.4899,1887.8795,1133.2332" fill="none" stroke="white" stroke-width="3"/>
<path d="M1887.8795,1133.2332 C1887.8795,1133.2332,1889.0149,1134.0481,1890.0873,1134.9319,1891.08,1135.8665,1892.0034,1136.8588,1892.821,1137.8574,1893.6285,1138.9958,1894.2389,1139.9703,1894.5751,1140.5494,1894.8903,1141.137,1895.1849,1141.7338,1895.4584,1142.3379,1895.7103,1142.9486,1895.9414,1143.5674,1896.3464,1144.964" fill="none" stroke="white" stroke-width="3"/>
<path d="M1799.5885,787.60504 C1799.5885,787.60504,1799.9401,784.1831,1800.0619,780.8014,1799.9592,777.4372,1799.6447,774.1675,1799.0933,770.8313,1798.3608,767.6898,1797.3848,764.5012,1796.262,761.53796,1795.1272,758.9956,1794.4365,757.5756,1793.6957,756.1726,1792.9038,754.7875,1792.0819,753.454,1791.2217,752.1562,1790.3168,750.8848,1789.3677,749.6414,1788.3923,748.44775,1787.38,747.2895,1786.3312,746.1671,1785.2515,745.08606,1784.1555,744.0585,1783.0205,743.06287,1781.7767,742.0475,1780.6205,741.16406,1779.4104,740.30133,1778.1699,739.4778,1776.9158,738.7036,1775.663,737.98553,1774.273,737.25323,1772.943,736.6087,1771.645,736.0309,1770.3052,735.487,1768.9412,734.9858,1767.578,734.53577,1766.1892,734.12854,1764.8016,733.77167,1763.4127,733.4635,1762.054,733.2082,1760.6672,732.99506,1759.2761,732.8284,1757.8794,732.70844,1756.4857,732.6356,1755.1107,732.60944,1753.7565,732.62805,1752.3875,732.6925,1751.033,732.80145,1749.6802,732.9559,1748.3541,733.1518,1747.0432,733.3899,1745.7345,733.6729,1744.353,734.02356,1743.0771,734.39307,1741.8201,734.80304,1740.5842,735.25214,1739.359,735.7445,1738.1669,736.2703,1737.0009,736.83154,1735.861,737.4275,1734.7429,738.0603,1733.6492,738.72845,1732.6033,739.4153,1731.5635,740.1489,1730.5509,740.9153,1729.5708,741.7099,1728.615,742.5398,1727.7006,743.3888,1726.8185,744.2643,1725.9736,745.16046,1725.1588,746.08453,1724.3981,747.0061,1723.6604,747.9622,1722.953,748.94495,1722.2781,749.9518,1721.639,750.9777,1721.0306,752.0323,1720.4658,753.09204,1719.939,754.1657,1719.4509,755.2508,1719.0024,756.3445,1718.5922,757.44904,1718.2205,758.56287,1717.8889,759.67896,1717.5952,760.80457,1717.3483,761.8943,1717.1328,763.0171,1716.9583,764.11945,1716.8179,765.2486,1716.718,766.33685,1716.6515,767.5034,1716.6251,768.6351,1716.637,769.76526,1716.6858,770.87695,1716.7721,771.9885,1716.8942,773.0856,1717.0505,774.164,1717.2476,775.2594,1717.4678,776.29114,1717.7297,777.34436,1718.0251,778.38275,1718.3529,779.40436,1718.7118,780.407,1719.1023,781.3933,1719.528,782.371,1719.964,783.2905,1720.4469,784.22656,1720.9412,785.11304,1721.4788,786.0057,1722.0432,786.87585,1722.6389,787.72974,1723.2562,788.5543,1723.8818,789.33545,1724.547,790.11127,1725.2301,790.85626,1725.9454,791.5853,1726.6838,792.28864,1727.4424,792.9636,1728.2145,793.60535,1728.9741,794.1962,1729.7753,794.77747,1730.5673,795.3136,1731.4059,795.84094,1732.2498,796.3329,1733.1672,796.8246,1735.1417,797.69934,1736.9288,798.3527,1738.7252,798.8781,1740.5652,799.2849,1742.405,799.5648,1744.2335,799.72015,1746.0728,799.753,1747.8862,799.6646,1749.676,799.4574,1751.438,799.1332,1753.142,798.7018,1754.8041,798.162,1756.3511,797.54865,1757.974,796.77155,1759.2721,796.0557,1760.0137,795.61365,1760.7368,795.149,1761.4427,794.6611,1762.1292,794.15155,1762.7957,793.6211,1763.4436,793.06854,1764.7748,791.7484,1765.8658,790.5118" fill="none" stroke="white" stroke-width="3"/>
<path d="M1186.6406,1095.6096 C1186.6406,1095.6096,1187.2235,1096.9722,1187.753,1098.3337,1188.2349,1099.7067,1188.667,1101.0824,1189.0531,1102.4722,1189.3837,1103.8317,1189.6722,1105.2158,1189.9153,1106.6125,1190.1118,1108.018,1190.2607,1109.4253,1190.3627,1110.847,1190.4161,1112.252,1190.4225,1113.6522,1190.3821,1115.0446,1190.2957,1116.4258,1190.1635,1117.799,1189.986,1119.1622,1189.7649,1120.5073,1189.4991,1121.843,1189.2025,1123.1171,1188.8558,1124.4099,1188.4764,1125.6603,1188.0474,1126.9214,1187.5964,1128.1188,1187.0704,1129.3816,1186.5199,1130.5872,1185.9299,1131.7716,1185.3105,1132.9177,1184.6517,1134.0446,1183.9625,1135.1378,1183.2468,1136.194,1182.4796,1137.2472,1181.7205,1138.2216,1180.9064,1139.1973,1180.0647,1140.1401,1179.1974,1141.0488,1178.307,1141.9216,1177.3916,1142.7611,1176.4437,1143.5735,1175.5145,1144.3193,1174.5276,1145.0586,1173.554,1145.7399,1172.5316,1146.4055,1171.4924,1147.0337,1170.4286,1147.6288,1169.357,1148.182,1168.299,1148.6852,1167.2018,1149.1625,1166.1016,1149.5983,1164.9756,1150.0007,1163.8384,1150.3643,1162.6945,1150.6877,1161.5532,1150.9692,1160.451,1151.2035,1159.31,1151.4064,1158.2019,1151.5665,1157.049,1151.6935,1155.9087,1151.7805,1154.6909,1151.8297,1152.1641,1151.7423,1149.9478,1151.5175,1147.787,1151.1531,1145.6409,1150.6415,1143.5598,1149.9962,1141.5543,1149.2256,1139.6001,1148.3204,1137.7349,1147.3007,1135.9554,1146.1678,1134.265,1144.926,1132.6904,1143.601,1131.2155,1142.183,1129.8993,1140.7465,1128.5868,1139.0986,1127.5851,1137.6813,1127.0298,1136.8367,1126.5054,1135.9777,1126.0111,1135.103,1125.5483,1134.2156,1125.1173,1133.3163,1124.7172,1132.4031,1123.9895,1130.3323,1123.472,1128.472,1123.0837,1126.6038,1122.8246,1124.7616" fill="none" stroke="white" stroke-width="3"/>
<path d="M1189.7649,1120.5073 C1189.7649,1120.5073,1189.4991,1121.843,1189.2025,1123.1171,1188.8558,1124.4099,1188.4764,1125.6603,1188.0474,1126.9214,1187.5964,1128.1188,1187.0704,1129.3816,1186.5199,1130.5872,1185.9299,1131.7716,1185.3105,1132.9177,1184.6517,1134.0446,1183.9625,1135.1378,1183.2468,1136.194,1182.4796,1137.2472,1181.7205,1138.2216,1180.9064,1139.1973,1180.0647,1140.1401,1179.1974,1141.0488,1178.307,1141.9216,1177.3916,1142.7611,1176.4437,1143.5735,1175.5145,1144.3193,1174.5276,1145.0586,1173.554,1145.7399,1172.5316,1146.4055,1171.4924,1147.0337,1170.4286,1147.6288,1169.357,1148.182,1168.299,1148.6852,1167.2018,1149.1625,1166.1016,1149.5983,1164.9756,1150.0007,1163.8384,1150.3643,1162.6945,1150.6877,1161.5532,1150.9692,1160.451,1151.2035,1159.31,1151.4064,1158.2019,1151.5665,1157.049,1151.6935,1155.9087,1151.7805,1154.6909,1151.8297,1152.1641,1151.7423,1149.9478,1151.5175,1147.787,1151.1531,1145.6409,1150.6415,1143.5598,1149.9962,1141.5543,1149.2256,1139.6001,1148.3204,1137.7349,1147.3007,1135.9554,1146.1678,1134.265,1144.926,1132.6904,1143.601,1131.2155,1142.183,1129.8993,1140.7465,1128.5868,1139.0986,1127.5851,1137.6813,1127.0298,1136.8367,1126.5054,1135.9777,1126.0111,1135.103,1125.5483,1134.2156,1125.1173,1133.3163,1124.7172,1132.4031,1123.9895,1130.3323,1123.472,1128.472,1123.0837,1126.6038,1122.8246,1124.7616,1122.6865,1122.8281,1122.6766,1120.976" fill="none" stroke="white" stroke-width="3"/>
<path d="M1864.1288,1132.9454 C1864.1288,1132.9454,1864.8201,1132.5276,1865.5125,1132.1195,1866.2117,1131.7179,1866.9075,1131.3285,1867.5873,1130.9578,1868.2853,1130.5872,1868.9794,1130.2284,1869.6844,1129.874,1870.392,1129.5283,1871.1,1129.1923,1871.8032,1128.868,1872.4805,1128.5647,1873.18,1128.2606,1873.8589,1127.9744,1874.565,1127.6859,1875.2639,1127.4094,1876.0118,1127.1239,1877.5739,1126.5719,1878.9579,1126.1171,1880.3262,1125.7006,1881.7101,1125.3129,1883.0823,1124.9612,1884.44,1124.645,1885.8049,1124.3591,1887.1555,1124.1074,1888.4983,1123.888,1889.8354,1123.6998,1891.1486,1123.5444,1892.4546,1123.4191,1893.6982,1123.3262,1895.0421,1123.257,1896.1486,1123.2212,1896.7928,1123.2075,1897.4341,1123.2012,1898.0739,1123.202,1898.7109,1123.21,1899.3452,1123.2251,1899.9788,1123.2473,1901.3684,1123.331,1902.5865,1123.4316,1903.7855,1123.5575,1904.9493,1123.7053,1906.1555,1123.8866,1907.3019,1124.0847,1908.4485,1124.3094,1909.5763,1124.5566,1910.6716,1124.8221,1911.7686,1125.114,1912.8419,1125.4253" fill="none" stroke="white" stroke-width="3"/>
<path d="M1122.8246,1124.7616 C1122.8246,1124.7616,1122.6865,1122.8281,1122.6766,1120.976,1122.7913,1119.1155,1123.0275,1117.2852,1123.3756,1115.5139,1123.8457,1113.7542,1124.4238,1112.0527,1125.1079,1110.4076,1125.8816,1108.8446" fill="none" stroke="white" stroke-width="3"/>
<path d="M1887.8795,1133.2332 C1887.8795,1133.2332,1889.0149,1134.0481,1890.0873,1134.9319,1891.08,1135.8665,1892.0034,1136.8588,1892.821,1137.8574,1893.6285,1138.9958,1894.2389,1139.9703,1894.5751,1140.5494,1894.8903,1141.137,1895.1849,1141.7338,1895.4584,1142.3379,1895.7103,1142.9486,1895.9414,1143.5674,1896.3464,1144.964,1896.6201,1146.2135,1896.8081,1147.4636,1896.9116,1148.6918,1896.9316,1149.9757,1896.8699,1151.2012,1896.7255,1152.4276,1896.5018,1153.6296,1896.2062,1154.7885,1895.8304,1155.9352,1895.3854,1157.0393,1894.8723,1158.1023,1894.303,1159.1077,1893.6481,1160.1,1892.952,1161.0161,1892.1979,1161.8822,1891.408,1162.6774,1890.562,1163.4225,1889.666,1164.1107,1888.7637,1164.7147,1887.7914,1165.274,1886.8177,1165.7516" fill="none" stroke="white" stroke-width="3"/>
<path d="M1912.8419,1125.4253 C1912.8419,1125.4253,1913.8833,1125.804,1914.8761,1126.2406,1915.8649,1126.7584,1916.7864,1127.3218,1917.6666,1127.9442,1918.484,1128.6067,1919.26,1129.3263,1919.9875,1130.098,1920.637,1130.8837,1921.2513,1131.7389,1921.7894,1132.603,1922.2738,1133.5122,1922.6854,1134.4253,1923.0339,1135.3589" fill="none" stroke="white" stroke-width="3"/>
<path d="M1417.9084,548.8319 C1417.9084,548.8319,1419.2314,553.78705,1421.0135,558.9807,1423.126,563.9782,1425.436,568.56946,1428.0135,572.94696,1430.9016,577.1758,1434.0164,581.1419,1437.3682,584.86926,1440.8959,588.3064,1444.676,591.5249,1448.4897,594.3677,1452.5298,596.9831,1456.9004,599.40186,1461.1041,601.3844,1465.607,603.14526,1469.9758,604.5344,1474.6378,605.6723,1479.1968,606.4682,1483.7715,606.9556,1488.2993,607.1366,1492.8425,607.01404,1497.2146,606.6101,1500.9783,606.04504,1503.4792,605.5711,1508.1187,604.33716,1512.2291,602.9467,1516.2406,601.2838,1520.094,599.37646,1523.7601,597.2488,1527.2773,594.8803,1530.5072,592.387,1533.6761,589.57886,1536.616,586.5963,1539.266,583.5275,1541.7296,580.2543,1543.9391,576.871,1545.8894,573.4032,1547.6091,569.80096,1549.0555,566.1732,1550.2742,562.3918,1551.1985,558.7231,1551.8894,554.92804,1552.3239,551.09155,1550.0359,535.954,1549.2714,532.43164,1548.221,528.79504,1546.9738,525.3468,1545.5128,522.01227,1543.8416,518.79474,1541.9004,515.61145,1539.8422,512.69037,1537.6584,509.9831,1535.2107,507.33768,1532.6952,504.95422,1529.9673,502.6992,1527.1484,500.6703,1524.2493,498.8627,1521.2526,497.26047,1518.2319,495.89133,1515.034,494.69604,1511.9155,493.75717,1508.6332,493.0079,1505.4744,492.50037,1502.678,492.2151,1501.0875,492.10547,1499.4867,492.04837,1497.8759,492.04492,1496.295,492.09375,1494.7263,492.1941,1493.1582,492.34677,1491.5923,492.55228,1490.0568,492.80576,1488.5337,493.10938,1487.0236,493.463,1485.534,493.86447,1484.0833,494.30707,1482.6409,494.7999,1481.1265,495.378,1479.7716,495.94583,1478.4077,496.57123,1477.0629,497.2429,1475.7544,497.95142,1474.4956,498.68695,1473.1554,499.53546,1471.9222,500.37555,1470.7635,501.22125,1469.6135,502.1206,1468.4886,503.06265,1467.409,504.02966,1466.354,505.04065,1465.3438,506.07587,1464.3754,507.13678,1463.4684,508.19785,1462.5842,509.30463,1461.7386,510.43866,1460.9312,511.601,1460.1664,512.7845,1459.4519,513.975,1458.787,515.1699,1458.1549,516.4008,1457.569,517.64136,1457.0238,518.9033,1456.5283,520.1628,1456.0774,521.4302,1455.6669,522.7182,1455.279,524.10394,1454.9608,525.40674,1454.6874,526.71344,1454.459,528.0212,1454.2738,529.3414,1454.1345,530.6494,1454.0394,531.95245,1453.9879,533.25006,1453.9795,534.5472,1454.0143,535.84076,1454.0895,537.1018,1454.2087,538.38104,1454.3704,539.6529,1454.5731,540.9105,1454.8188,542.16473,1455.1022,543.39233,1455.4249,544.6049,1455.7845,545.7953,1456.1837,546.9733,1456.6078,548.10284,1457.0737,549.22955,1457.5782,550.34314,1458.1202,551.44037,1458.697,552.51587,1459.3142,553.57886,1459.9578,554.6063,1460.6327,555.60754,1461.3372,556.5805,1462.069,557.52325,1462.8296,558.438,1463.6177,559.3236,1464.428,560.1752,1465.2656,560.9984,1466.0953,561.7627,1466.9698,562.5161,1467.847,563.2234,1468.7649,563.9142,1469.6674,564.54895,1470.6552,565.1939,1471.6326,565.78613,1472.6279,566.3442,1473.6256,566.8606,1474.6421,567.3442,1475.664,567.78906,1476.6866,568.19464,1477.7448,568.5731,1478.7588,568.89923,1479.8126,569.1997,1480.8702,569.4634,1481.9294,569.69025,1482.9877,569.8804,1484.0476,570.0346,1485.1176,570.15375,1486.1418,570.2345,1487.2041,570.2826,1488.2288,570.2957,1489.2805,570.27405,1490.3262,570.2175,1491.3733,570.1255,1492.4056,569.9998,1493.404,569.84503,1494.4178,569.6529,1495.4136,569.4296,1496.4116,569.17017,1497.3988,568.8775,1498.3712,568.5529,1499.3213,568.1998,1500.2206,567.83203,1501.1324,567.423,1502.0001,566.9993,1502.8835,566.5304,1503.7386,566.0391,1504.6306,565.4832,1506.3895,564.19476,1507.8604,562.9589,1509.2239,561.6506,1510.5055,560.24445,1511.6759,558.7746,1512.7316,557.2521,1513.6854,555.6585,1514.5201,554.0264,1515.2389,552.3554,1515.8413,550.64984,1516.3208,548.9411,1516.6842,547.21454,1516.9254,545.5518,1517.0614,543.74023,1517.0876,542.2438,1517.0736,541.3722,1517.0305,540.5054,1516.9584,539.642,1516.8577,538.7848,1516.7285,537.9346,1516.5707,537.0894,1516.0845,535.26013,1515.5507,533.683,1514.9209,532.1628,1514.2117,530.7238,1513.3718,529.27856,1512.4801,527.9534,1511.4955,526.68286,1510.439,525.4927,1509.3312,524.399,1508.1421,523.3726,1506.9043,522.4403,1505.6183,521.5995,1504.3083,520.8607,1502.9117,520.1939,1501.5204,519.63965,1500.0978,519.18024,1498.683,518.824,1497.2394,518.56104,1495.7782,518.3953,1494.3663,518.32776,1492.9065,518.35693,1491.5001,518.4782,1490.0885,518.6965,1488.733,518.9988,1487.4072,519.3881,1486.1107,519.8648,1484.8391,520.4328,1483.6449,521.0643,1482.5016,521.7696,1481.4122,522.5463,1480.3896,523.38306,1479.4269,524.28455" fill="none" stroke="white" stroke-width="3"/>
<path d="M1720.4658,753.09204 C1720.4658,753.09204,1719.939,754.1657,1719.4509,755.2508,1719.0024,756.3445,1718.5922,757.44904,1718.2205,758.56287,1717.8889,759.67896,1717.5952,760.80457,1717.3483,761.8943,1717.1328,763.0171,1716.9583,764.11945,1716.8179,765.2486,1716.718,766.33685,1716.6515,767.5034,1716.6251,768.6351,1716.637,769.76526,1716.6858,770.87695,1716.7721,771.9885,1716.8942,773.0856,1717.0505,774.164,1717.2476,775.2594,1717.4678,776.29114,1717.7297,777.34436,1718.0251,778.38275,1718.3529,779.40436,1718.7118,780.407,1719.1023,781.3933,1719.528,782.371,1719.964,783.2905,1720.4469,784.22656,1720.9412,785.11304,1721.4788,786.0057,1722.0432,786.87585,1722.6389,787.72974,1723.2562,788.5543,1723.8818,789.33545,1724.547,790.11127,1725.2301,790.85626,1725.9454,791.5853,1726.6838,792.28864,1727.4424,792.9636,1728.2145,793.60535,1728.9741,794.1962,1729.7753,794.77747,1730.5673,795.3136,1731.4059,795.84094,1732.2498,796.3329,1733.1672,796.8246,1735.1417,797.69934,1736.9288,798.3527,1738.7252,798.8781,1740.5652,799.2849,1742.405,799.5648,1744.2335,799.72015,1746.0728,799.753,1747.8862,799.6646,1749.676,799.4574,1751.438,799.1332,1753.142,798.7018,1754.8041,798.162,1756.3511,797.54865,1757.974,796.77155,1759.2721,796.0557,1760.0137,795.61365,1760.7368,795.149,1761.4427,794.6611,1762.1292,794.15155,1762.7957,793.6211,1763.4436,793.06854,1764.7748,791.7484,1765.8658,790.5118,1766.8607,789.2208,1767.7466,787.9017,1768.5734,786.4673,1769.2714,785.0476,1769.8767,783.57513,1770.3776,782.0805,1770.7703,780.58954,1771.0651,779.06195,1771.255,777.53894,1771.3425,776.01965,1771.3306,774.53015,1771.2141,773.0017,1771.0037,771.5333,1770.6963,770.08496,1770.3042,768.69415,1769.8176,767.3246,1769.2389,765.98785,1768.6002,764.742,1767.8549,763.5026,1767.0568,762.3547,1766.1727,761.25006,1765.2444,760.23517,1764.2559,759.28864,1763.2068,758.4104,1762.0916,757.59863,1760.96,756.8846,1759.7902,756.25073,1758.5856,755.6985,1757.3624,755.23315,1756.1132,754.85114,1754.8618,754.5574,1753.5894,754.3473,1752.3369,754.2244" fill="none" stroke="white" stroke-width="3"/>
<path d="M1479.4269,524.28455 C1479.4269,524.28455,1478.5403,525.2323,1477.7163,526.2406,1476.9788,527.2752,1476.3157,528.34845,1475.7135,529.4898,1475.2032,530.63574,1474.7777,531.7902" fill="none" stroke="white" stroke-width="3"/>
<path d="M1122.6766,1120.976 C1122.6766,1120.976,1122.7913,1119.1155,1123.0275,1117.2852,1123.3756,1115.5139,1123.8457,1113.7542,1124.4238,1112.0527,1125.1079,1110.4076,1125.8816,1108.8446,1126.7853,1107.2941,1127.7573,1105.8549,1128.8212,1104.4862,1129.9448,1103.2214,1131.1571,1102.0273,1132.4497,1100.9149,1133.759,1099.9288,1135.1775,1099.0042,1136.6047,1098.2028,1138.1003,1097.4908,1139.5969,1096.8961,1141.122,1096.4042,1142.6758,1096.0151,1144.2654,1095.7299,1145.8223,1095.5558,1147.3784,1095.4858,1148.9294,1095.5197,1150.4557,1095.6545,1151.9668,1095.8905,1153.435,1096.2205,1154.8828,1096.6493,1156.2649,1097.1598,1157.6008,1097.7559,1158.9229,1098.457,1160.1598,1099.2225,1161.321,1100.0515,1162.4204,1100.9515,1163.4839,1101.9509,1164.4436,1102.9812,1165.3234,1104.0609,1166.1106,1105.1667" fill="none" stroke="white" stroke-width="3"/>
<path d="M1474.7777,531.7902 C1474.7777,531.7902,1474.4307,532.9653,1474.1575,534.1938,1473.9733,535.3939,1473.87,536.5905,1473.8455,537.7609,1473.9031,538.978,1474.0376,540.1525,1474.2468,541.2994,1474.5304,542.4242,1474.8844,543.5167,1475.3057,544.5726,1475.7922,545.5906" fill="none" stroke="white" stroke-width="3"/>
<path d="M1338.0057,619.3134 C1338.0057,619.3134,1338.8,618.34033,1339.578,617.32025,1340.323,616.2729,1341.0258,615.2123,1341.68,614.1513,1342.3505,612.97235,1342.9435,611.8428,1343.478,610.7389,1343.9845,609.59796,1344.4547,608.43494,1344.8809,607.27124,1345.2708,606.0843,1345.6172,604.89703,1345.9216,603.7072,1346.1796,602.542,1346.402,601.35144,1346.5844,600.1558,1346.7266,598.9541,1346.828,597.7536,1346.8888,596.568,1346.9103,595.399,1346.8926,594.216,1346.8362,593.0444,1346.7405,591.8729,1346.6082,590.7233,1346.4391,589.58563,1346.2312,588.44867,1345.9669,587.247,1345.6835,586.1359,1345.3646,585.0399,1345.0115,583.9612,1344.6206,582.89044,1344.2,581.8473,1343.748,580.82574,1343.2655,579.82574,1342.7505,578.8435,1342.2043,577.8813,1341.6407,576.95984,1341.0366,576.04236,1340.4034,575.1475,1339.745,574.2799,1339.0555,573.4322,1338.3484,572.6196,1337.6174,571.8343,1336.8677,571.08044,1336.093,570.3518,1335.319,569.66986,1334.5145,569.00684,1333.6863,568.3692,1332.8363,567.759,1331.9689,567.17914,1331.0759,566.625,1330.1772,566.1083,1329.2655,565.62396,1328.3429,565.17285,1327.4117,564.75555,1326.4701,564.3709,1325.5194,564.0193,1324.5657,563.70233,1323.6027,563.4177,1322.6693,563.17444,1321.7065,562.95734,1320.7603,562.7761,1319.7899,562.6237,1318.8538,562.5074,1317.8491,562.41766,1316.8734,562.3635,1315.898,562.3424,1314.9375,562.35364,1313.9761,562.3972,1313.0261,562.47217,1312.0913,562.57715,1311.1407,562.71674,1310.2444,562.8782,1309.3284,563.07495,1308.4243,563.301,1307.5338,563.55554,1306.6588,563.8374,1305.797,564.14703,1304.9417,564.4871,1304.1362,564.8378,1303.3152,565.2285,1302.5366,565.6304,1301.7516,566.06946,1300.9851,566.53235,1300.2318,567.02264,1299.5033,567.53235,1298.812,568.0504,1298.1241,568.60284,1297.4624,569.1716,1296.8135,569.7685,1296.1862,570.3861,1295.5828,571.02185,1295.0077,571.67017,1294.4768,572.3092,1293.9531,572.9844,1293.4686,573.65283,1292.9904,574.3618,1292.5425,575.07623,1292.0928,575.85425,1291.2832,577.5335,1290.6699,579.05725,1290.1667,580.5926,1289.7648,582.1688,1289.4723,583.7485,1289.2876,585.3217,1289.2083,586.90765,1289.2343,588.4748,1289.3634,590.0247,1289.5942,591.55396,1289.9192,593.03613,1290.3389,594.48517,1290.8251,595.8369,1291.4506,597.2587,1292.0322,598.3986,1292.3931,599.0508,1292.7739,599.6876,1293.1753,600.3102,1293.5958,600.91656,1294.035,601.5063,1294.4938,602.0806,1295.5958,603.26575,1296.6326,604.2414,1297.7189,605.13556,1298.8324,605.93646,1300.047,606.6896,1301.2526,607.3312,1302.5062,607.89435,1303.7819,608.3679,1305.0574,608.74805,1306.3672,609.04474,1307.676,609.25085,1308.9844,609.3685,1310.2699,609.39954,1311.5919,609.3415,1312.8646,609.2006,1314.1228,608.9756,1315.3336,608.67584,1316.5287,608.29407,1317.698,607.83185,1318.7906,607.3154,1319.8806,606.70667,1320.8932,606.0499,1321.8707,605.3179,1322.7721,604.545,1323.6162,603.7183,1324.4031,602.8375,1325.1344,601.8978,1325.7819,600.94135,1326.3612,599.9496,1326.8711,598.9256,1327.3065,597.8832,1327.6708,596.8159,1327.9589,595.7444,1328.1754,594.65234,1328.3162,593.57513,1328.3853,592.4987,1328.381,591.3954,1328.3055,590.3255,1328.1627,589.2832,1327.9523,588.25696,1327.6647,587.2201,1327.3214,586.24036,1326.9185,585.29584,1326.4667,584.4027,1325.9341,583.5073,1325.3605,582.67505,1324.7417,581.8936,1324.0756,581.15875,1323.3693,580.47656,1322.6271,579.84906,1321.8507,579.27637,1321.0375,578.7566,1320.2115,578.3022,1319.3359,577.8952,1318.49,577.5664,1317.5682,577.2795,1316.6958,577.0686,1315.7668,576.91034,1314.8705,576.8178,1313.9723,576.7849,1313.0818,576.8112,1312.1775,576.8998,1311.3079,577.04376,1310.4722,577.2389,1309.6259,577.4981,1308.8201,577.80493,1308.0494,578.1582,1307.3016,578.5635,1306.5939,579.00995,1305.9148,579.5048,1305.2794,580.036,1304.683,580.6065,1304.1255,581.21674,1303.6249,581.843,1303.1667,582.5016,1302.7623,583.1728,1302.4049,583.86487,1302.0839,584.6075,1301.8247,585.33563,1301.6136,586.084,1301.4548,586.8359,1301.348,587.5834,1301.2914,588.31793,1301.2844,589.0799,1301.325,589.8046,1301.4197,590.56006,1301.5582,591.276,1301.7412,591.972,1301.9705,592.65515,1302.2394,593.30963,1302.5552,593.9518,1302.9083,594.563,1303.2888,595.13226,1303.7128,595.6829,1304.1709,596.2019" fill="none" stroke="white" stroke-width="3"/>
<path d="M1475.7922,545.5906 C1475.7922,545.5906,1476.346,546.5742,1476.9487,547.4974,1477.6289,548.39886,1478.3214,549.20337,1479.1152,550.00635,1479.8999,550.7037,1480.7719,551.3778,1481.6464,551.9661,1482.5554,552.49384,1483.4891,552.95624,1484.4713,553.362,1485.4481,553.6914,1486.418,553.9494,1487.4342,554.1471,1488.4347,554.2734,1489.4244,554.33234,1490.4192,554.32513,1491.3953,554.25336,1492.3683,554.11584,1493.3163,553.9168,1494.2457,553.6558,1495.1567,553.33234,1496.0178,552.961,1496.8528,552.53296,1497.6393,552.06244,1498.3887,551.5445,1499.1283,550.9544,1499.7961,550.3452,1500.4254,549.6887,1501.0027,548.9998,1501.5239,548.2869,1501.9862,547.5598,1502.4124,546.7771,1502.7689,546.00665,1503.0865,545.17474,1503.3372,544.35956,1503.5309,543.54047,1503.6698,542.70917,1503.7521,541.8857,1503.7792,541.0492,1503.7507,540.2241,1503.6709,539.42725,1503.536,538.6258,1503.3484,537.83813" fill="none" stroke="white" stroke-width="3"/>
<path d="M1752.3369,754.2244 C1752.3369,754.2244,1751.088,754.1846,1749.8107,754.2306,1748.5748,754.3578,1747.3734,754.56195,1746.193,754.84375,1745.0032,755.21533,1743.8816,755.6493,1742.803,756.15106,1741.7858,756.70746,1740.7689,757.3575,1739.8267,758.05255,1738.945,758.7981,1738.1189,759.5967,1737.3553,760.4398,1736.6565,761.3226,1736.0223,762.2428,1735.4508,763.2037,1734.9554,764.1769,1734.5168,765.2059,1734.1676,766.1976,1733.8698,767.2755,1733.6581,768.29346,1733.5094,769.37494,1733.4357,770.41626,1733.431,771.4574,1733.4946,772.4874,1733.6307,773.5312,1733.8298,774.53265,1734.0868,775.4929,1734.4185,776.4632,1734.8037,777.3847,1735.2415,778.26373,1735.7385,779.1145,1736.2817,779.9173,1736.88,780.6851,1737.5187,781.40106,1738.2014,782.07043,1738.9287,782.6932,1739.6725,783.24945,1740.452,783.7554,1741.2441,784.1986,1742.0587,784.5867,1742.9304,784.9307,1743.7831,785.2037,1744.6573,785.42017,1745.5338,785.57605,1746.4033,785.67194,1747.2559,785.7102,1748.1383,785.68994,1748.976,785.616,1749.847,785.4783,1750.6708,785.29126,1751.4698,785.05347,1752.2523,784.7626,1753.0001,784.42694,1753.7318,784.0374,1754.4264,783.60583,1755.0714,783.14404,1755.6931,782.63275,1756.277,782.083,1756.8152,781.50385" fill="none" stroke="white" stroke-width="3"/>
<path d="M1475.7922,545.5906 C1475.7922,545.5906,1476.346,546.5742,1476.9487,547.4974,1477.6289,548.39886,1478.3214,549.20337,1479.1152,550.00635,1479.8999,550.7037,1480.7719,551.3778,1481.6464,551.9661,1482.5554,552.49384,1483.4891,552.95624,1484.4713,553.362,1485.4481,553.6914,1486.418,553.9494,1487.4342,554.1471,1488.4347,554.2734,1489.4244,554.33234,1490.4192,554.32513,1491.3953,554.25336,1492.3683,554.11584,1493.3163,553.9168,1494.2457,553.6558,1495.1567,553.33234,1496.0178,552.961,1496.8528,552.53296,1497.6393,552.06244,1498.3887,551.5445,1499.1283,550.9544,1499.7961,550.3452,1500.4254,549.6887,1501.0027,548.9998,1501.5239,548.2869,1501.9862,547.5598,1502.4124,546.7771,1502.7689,546.00665,1503.0865,545.17474,1503.3372,544.35956,1503.5309,543.54047,1503.6698,542.70917,1503.7521,541.8857,1503.7792,541.0492,1503.7507,540.2241,1503.6709,539.42725,1503.536,538.6258,1503.3484,537.83813,1503.112,537.0756,1502.8302,536.3418,1502.5061,535.6395,1502.1233,534.93976" fill="none" stroke="white" stroke-width="3"/>
<path d="M1304.1709,596.2019 C1304.1709,596.2019,1304.6556,596.6824,1305.1633,597.12286,1305.6902,597.5226,1306.2603,597.8968" fill="none" stroke="white" stroke-width="3"/>
<path d="M2035.1072,1251.6744 C2035.1072,1251.6744,2030.9926,1263.0538,2029.9832,1265.712,2028.8784,1268.4795,2027.7665,1271.137,2026.6216,1273.7515,2025.4408,1276.3308,2024.184,1278.9562,2022.9404,1281.4469,2021.6932,1283.8466,2020.3617,1286.3054,2019.0454,1288.6434,2017.6637,1291.0032,2016.2722,1293.291,2014.869,1295.5139,2013.4397,1297.6968,2012.013,1299.7998,2010.5109,1301.9348,2009.0479,1303.9438,2007.5037,1305.9901,2006.0077,1307.9067,2004.6713,1309.5688,2003.906,1310.5048,2003.1296,1311.4384,2002.3416,1312.3701,2001.5607,1313.278,2000.7775,1314.1735,1999.9855,1315.064,1999.1846,1315.9495,1998.3885,1316.8151,1997.5875,1317.6719,1996.7809,1318.5204,1995.972,1319.3572,1995.1703,1320.173,1994.3583,1320.9857,1993.4877,1321.8418,1992.6929,1322.6108,1991.875,1323.3892,1991.0496,1324.1617,1990.2267,1324.9193,1989.4148,1325.6547,1988.5249,1326.4463,1987.682,1327.1836,1986.8663,1327.8854,1986.0308,1328.5924,1985.1855,1329.2955,1984.3452,1329.9828,1983.4927,1330.6681,1982.6436,1331.339,1981.7953,1331.9978,1980.9662,1332.631,1980.1199,1333.2662,1979.2699,1333.8932,1978.4148,1334.5131,1977.5587,1335.1227,1976.7107,1335.7161,1975.8711,1336.2933,1975.0171,1336.8701,1974.1661,1337.4346,1973.3092,1337.9928,1972.4615,1338.535,1971.615,1339.0668,1970.7603,1339.5938,1969.846,1340.1462,1968.9901,1340.6538,1968.1344,1341.1516,1967.2798,1341.6393,1966.418,1342.1216,1965.5641,1342.5901,1964.7126,1343.0481,1963.863,1343.4961,1963.0111,1343.9363,1962.1581,1344.3682,1961.3223,1344.7827,1960.4692,1345.197,1959.615,1345.603,1958.7633,1345.9991,1957.906,1346.3892,1957.0582,1346.7664,1956.2112,1347.1348,1955.3691,1347.4928,1954.5244,1347.8436,1953.7026,1348.1771,1952.8699,1348.5071,1952.0326,1348.8308,1951.1923,1349.1477,1950.352,1349.4565,1949.5037,1349.7603,1948.6648,1350.0526,1947.8274,1350.3367,1946.9924,1350.612,1946.161,1350.8787,1945.3304,1351.1373,1944.5011,1351.388,1943.6771,1351.6295,1942.8523,1351.8638,1942.0587,1352.0823,1941.2452,1352.299,1940.4498,1352.5039,1939.6376,1352.706,1938.8563,1352.8938,1938.0198,1353.0872,1937.2083,1353.2676,1936.3969,1353.4408,1935.597,1353.6046,1934.7948,1353.7618,1933.9996,1353.9108,1933.2139,1354.0513,1932.4105,1354.1879,1931.6484,1354.3112,1930.8638,1354.4313,1930.0828,1354.5442,1929.306,1354.6499,1928.5347,1354.7484,1927.7659,1354.8401,1926.9928,1354.9257,1926.2546,1355.0013,1925.4905,1355.0732,1924.7539,1355.1366,1923.9977,1355.1952,1923.2448,1355.2472,1922.489,1355.2931,1921.7413,1355.3322,1921.015,1355.3641,1920.2734,1355.3906,1919.5402,1355.4106,1918.7994,1355.4247,1918.0602,1355.4324,1917.3245,1355.4338,1916.5974,1355.4291,1915.9009,1355.419,1915.185,1355.4025,1914.4939,1355.381,1913.7786,1355.3527,1913.0739,1355.3188,1912.3236,1355.2761,1910.7733,1355.1587,1909.4121,1355.0327,1908.0781,1354.887,1906.7405,1354.7181,1905.4252,1354.5298,1904.134,1354.323,1902.8462,1354.0945,1901.5815,1353.8484,1900.3335,1353.5839,1899.0996,1353.3007,1897.8962,1353.0034,1896.7073,1352.6888,1895.5822,1352.372,1894.3744,1352.0092,1893.3853,1351.6964,1892.811,1351.5095,1892.2412,1351.3188,1891.6743,1351.1238,1891.1116,1350.9248,1890.5527,1350.7219,1889.9961,1350.5145,1888.7827,1350.0361,1887.7247,1349.5985,1886.6886,1349.1497,1885.6877,1348.6965,1884.6555,1348.2076,1883.679,1347.7252,1882.7065,1347.2244,1881.7542,1346.7135,1880.8328,1346.1996,1879.9138,1345.6666,1879.018,1345.127,1878.1406,1344.5784,1877.2925,1344.0284,1876.4313,1343.449,1875.609,1342.8757,1874.7997,1342.2911,1874.0209,1341.7089,1873.249,1341.1115,1872.4873,1340.5011,1871.7662,1339.9038,1871.0336,1339.2755,1870.3368,1338.6578,1869.6438,1338.0223,1868.9817,1337.3947,1868.3347,1336.7606,1867.7,1336.1174,1867.0724,1335.4596,1866.4756,1334.8129,1865.8942,1334.1614,1865.3271,1333.5043,1864.7792,1332.8474,1864.2443,1332.1841,1863.7299,1331.5242,1863.2261,1330.8549,1862.7462,1330.1951,1862.2816,1329.5336,1861.819,1328.8505,1861.3812,1328.1804,1860.9636,1327.5176,1860.5596,1326.852,1860.1572,1326.163,1859.7809,1325.4932,1859.4204,1324.8259,1859.0803,1324.1713,1858.7389,1323.4854,1858.4194,1322.8158,1858.1161,1322.1519,1857.8258,1321.4875,1857.55,1320.8265,1857.2885,1320.1692,1857.0402,1319.5139,1856.8033,1318.8557,1856.583,1318.2103,1856.3691,1317.547,1856.1785,1316.9215,1855.9877,1316.2543,1855.8207,1315.6324,1855.6569,1314.978,1855.5109,1314.3511,1855.376,1313.7247,1855.2528,1313.103,1855.1382,1312.4683,1855.0375,1311.852,1854.9495,1311.2517,1854.8694,1310.6323,1854.8015,1310.029,1854.7448,1309.4362,1854.6979,1308.8417,1854.6615,1308.2573,1854.6349,1307.6713,1854.6183,1307.0945,1854.6115,1306.5206,1854.6143,1305.9471,1854.6261,1305.3921,1854.6472,1304.8381,1854.6766,1304.2986,1854.7146,1303.7639,1854.7634,1303.2106,1854.8187,1302.6838,1854.883,1302.156,1854.9552,1301.6366,1855.0344,1301.1285,1855.1196,1300.6351,1855.2162,1300.1274,1855.3158,1299.6464,1855.4287,1299.1448,1855.5446,1298.6672,1855.6665,1298.1989,1855.7961,1297.7329,1855.9307,1297.2784,1856.0741,1296.8221,1856.2228,1296.3755,1856.3738,1295.9454,1856.5339,1295.5126,1856.7004,1295.085,1856.8712,1294.667,1857.0458,1294.2592,1857.2238,1293.8616,1857.414,1293.4556,1857.6047,1293.0653" fill="none" stroke="white" stroke-width="3"/>
<path d="M1122.8246,1124.7616 C1122.8246,1124.7616,1122.6865,1122.8281,1122.6766,1120.976,1122.7913,1119.1155,1123.0275,1117.2852,1123.3756,1115.5139,1123.8457,1113.7542,1124.4238,1112.0527,1125.1079,1110.4076,1125.8816,1108.8446,1126.7853,1107.2941,1127.7573,1105.8549,1128.8212,1104.4862,1129.9448,1103.2214,1131.1571,1102.0273,1132.4497,1100.9149,1133.759,1099.9288,1135.1775,1099.0042,1136.6047,1098.2028,1138.1003,1097.4908,1139.5969,1096.8961,1141.122,1096.4042,1142.6758,1096.0151,1144.2654,1095.7299,1145.8223,1095.5558,1147.3784,1095.4858,1148.9294,1095.5197,1150.4557,1095.6545,1151.9668,1095.8905,1153.435,1096.2205,1154.8828,1096.6493,1156.2649,1097.1598,1157.6008,1097.7559,1158.9229,1098.457,1160.1598,1099.2225,1161.321,1100.0515,1162.4204,1100.9515,1163.4839,1101.9509,1164.4436,1102.9812,1165.3234,1104.0609,1166.1106,1105.1667,1166.8496,1106.3711,1167.487,1107.5848,1168.0349,1108.8207,1168.4971,1110.084,1168.8706,1111.3623,1169.1558,1112.6493,1169.3536,1113.9427,1169.4647,1115.247,1169.4893,1116.5253,1169.4255,1117.8333,1169.2867,1119.0564,1169.0498,1120.3441,1168.7527,1121.5245,1168.3567,1122.7397,1167.9023,1123.8744,1167.3752,1124.9735,1166.7819,1126.026,1166.1051,1127.0559,1165.3837,1128.0092,1164.6223,1128.8894,1163.7772,1129.7421,1162.9005,1130.516,1161.9902,1131.2184,1161.032,1131.8606,1160.0496,1132.4287,1159.0271,1132.9319,1157.9885,1133.3597,1156.9274,1133.7161,1155.843,1134.0004,1154.7753,1134.2063,1153.6956,1134.3408,1152.6346,1134.403,1151.5782,1134.3955,1150.4841,1134.3125,1149.4464,1134.1643,1148.4148,1133.9457,1147.4119,1133.662,1146.447,1133.3187,1145.5294,1132.9233,1144.6102,1132.451,1143.7656,1131.9452,1142.9183,1131.355,1142.1461,1130.737,1141.4259,1130.0782,1140.7502,1129.372,1140.134,1128.6362,1139.5623,1127.852,1139.0511,1127.0425,1138.6077,1126.2266,1138.214,1125.3702,1137.8799,1124.4928,1137.6089,1123.6077,1137.4003,1122.7203,1137.2527,1121.8356,1137.1631,1120.915,1137.1359,1120.0172,1137.1672,1119.138" fill="none" stroke="white" stroke-width="3"/>
<path d="M1896.3464,1144.964 C1896.3464,1144.964,1896.6201,1146.2135,1896.8081,1147.4636,1896.9116,1148.6918,1896.9316,1149.9757,1896.8699,1151.2012,1896.7255,1152.4276,1896.5018,1153.6296,1896.2062,1154.7885,1895.8304,1155.9352,1895.3854,1157.0393,1894.8723,1158.1023,1894.303,1159.1077,1893.6481,1160.1,1892.952,1161.0161,1892.1979,1161.8822,1891.408,1162.6774,1890.562,1163.4225,1889.666,1164.1107,1888.7637,1164.7147,1887.7914,1165.274,1886.8177,1165.7516,1885.8022,1166.1674,1884.7904,1166.5056,1883.7635,1166.7748,1882.7214,1166.9749,1881.6594,1167.105,1880.6232,1167.1627,1879.5912,1167.1516,1878.5664,1167.0721,1877.5618,1166.9268,1876.5709,1166.715,1875.6118,1166.4426,1874.6699,1166.1056,1873.7745,1165.7169,1872.9128,1165.2733,1872.0642,1164.7609,1871.2743,1164.209,1870.5366,1163.6178,1869.8425,1162.9819,1869.1759,1162.2817,1868.579,1161.565,1868.0367,1160.8184,1867.5568,1160.0579,1867.1123,1159.234,1866.7354,1158.4077,1866.4185,1157.5701,1866.1593,1156.7174,1865.9594,1155.858,1865.8181,1154.9962,1865.7349,1154.1334,1865.7095,1153.2666,1865.7404,1152.4202,1865.8307,1151.5573,1865.9677,1150.7533,1866.1719,1149.9103,1866.412,1149.1404,1866.7186,1148.3512,1867.061,1147.6174,1867.4502,1146.9098,1867.8815,1146.2355,1868.3671,1145.5792,1868.8794,1144.9753,1869.4155,1144.4211,1870.006,1143.8883,1870.6144,1143.4087,1871.2423,1142.9777,1871.8999,1142.5881,1872.5707,1142.2485,1873.2656,1141.9534,1873.9684,1141.7086,1874.6835,1141.5121,1875.4113,1141.364,1876.1251,1141.2672,1876.8442,1141.218,1877.5483,1141.216,1878.2468,1141.2598,1878.9675,1141.355,1879.6484,1141.4912,1880.3228,1141.6738,1880.9757,1141.8984,1881.6013,1142.161,1882.1937,1142.4563,1882.7844,1142.8025,1883.3245,1143.1682,1883.8632,1143.5898,1884.3512,1144.027,1884.8033,1144.4893,1885.2242,1144.9813,1885.6047,1145.4906,1885.9541,1146.0304,1886.2623,1146.5847,1886.5256,1147.1407,1886.7545,1147.7217,1886.9432,1148.3145,1887.0898,1148.9099,1887.1952,1149.5045,1887.2603,1150.0952,1887.2856,1150.7074,1887.2705,1151.3022,1887.2174,1151.8827,1887.1263,1152.4563,1886.9987,1153.0178,1886.8351,1153.5663" fill="none" stroke="white" stroke-width="3"/>
<path d="M1122.6766,1120.976 C1122.6766,1120.976,1122.7913,1119.1155,1123.0275,1117.2852,1123.3756,1115.5139,1123.8457,1113.7542,1124.4238,1112.0527,1125.1079,1110.4076,1125.8816,1108.8446,1126.7853,1107.2941,1127.7573,1105.8549,1128.8212,1104.4862,1129.9448,1103.2214,1131.1571,1102.0273,1132.4497,1100.9149,1133.759,1099.9288,1135.1775,1099.0042,1136.6047,1098.2028,1138.1003,1097.4908,1139.5969,1096.8961,1141.122,1096.4042,1142.6758,1096.0151,1144.2654,1095.7299,1145.8223,1095.5558,1147.3784,1095.4858,1148.9294,1095.5197,1150.4557,1095.6545,1151.9668,1095.8905,1153.435,1096.2205,1154.8828,1096.6493,1156.2649,1097.1598,1157.6008,1097.7559,1158.9229,1098.457,1160.1598,1099.2225,1161.321,1100.0515,1162.4204,1100.9515,1163.4839,1101.9509,1164.4436,1102.9812,1165.3234,1104.0609,1166.1106,1105.1667,1166.8496,1106.3711,1167.487,1107.5848,1168.0349,1108.8207,1168.4971,1110.084,1168.8706,1111.3623,1169.1558,1112.6493,1169.3536,1113.9427,1169.4647,1115.247,1169.4893,1116.5253,1169.4255,1117.8333,1169.2867,1119.0564,1169.0498,1120.3441,1168.7527,1121.5245,1168.3567,1122.7397,1167.9023,1123.8744,1167.3752,1124.9735,1166.7819,1126.026,1166.1051,1127.0559,1165.3837,1128.0092,1164.6223,1128.8894,1163.7772,1129.7421,1162.9005,1130.516,1161.9902,1131.2184,1161.032,1131.8606,1160.0496,1132.4287,1159.0271,1132.9319,1157.9885,1133.3597,1156.9274,1133.7161,1155.843,1134.0004,1154.7753,1134.2063,1153.6956,1134.3408,1152.6346,1134.403,1151.5782,1134.3955,1150.4841,1134.3125,1149.4464,1134.1643,1148.4148,1133.9457,1147.4119,1133.662,1146.447,1133.3187,1145.5294,1132.9233,1144.6102,1132.451,1143.7656,1131.9452,1142.9183,1131.355,1142.1461,1130.737,1141.4259,1130.0782,1140.7502,1129.372,1140.134,1128.6362,1139.5623,1127.852,1139.0511,1127.0425,1138.6077,1126.2266,1138.214,1125.3702,1137.8799,1124.4928,1137.6089,1123.6077,1137.4003,1122.7203,1137.2527,1121.8356,1137.1631,1120.915,1137.1359,1120.0172,1137.1672,1119.138,1137.2563,1118.2659,1137.4017,1117.4089,1137.6023,1116.5686,1137.8575,1115.746" fill="none" stroke="white" stroke-width="3"/>
<path d="M1857.6047,1293.0653 C1857.6047,1293.0653,1857.8038,1292.6901,1858.0142,1292.3235,1858.2343,1291.9677,1858.4642,1291.6221,1858.7045,1291.2859,1858.9602,1290.9528,1859.2102,1290.6481,1859.4723,1290.3494,1859.7529,1290.0508,1860.031,1289.7739,1860.3165,1289.5079,1860.6064,1289.2554,1860.9036,1289.0134,1861.206,1288.7836" fill="none" stroke="white" stroke-width="3"/>
<path d="M1304.1709,596.2019 C1304.1709,596.2019,1304.6556,596.6824,1305.1633,597.12286,1305.6902,597.5226,1306.2603,597.8968,1306.8369,598.2225,1307.4215,598.50354,1308.0214,598.74445,1308.6306,598.9435,1309.2478,599.10077,1309.8723,599.2163,1310.5146,599.2902,1311.1216,599.3205,1311.7354,599.31067,1312.3672,599.2571,1312.9685,599.1656,1313.56,599.03485,1314.1342,598.8674,1314.6948,598.6625,1315.2368,598.4223,1315.7524,598.1518,1316.2393,597.8544" fill="none" stroke="white" stroke-width="3"/>
<path d="M1720.4658,753.09204 C1720.4658,753.09204,1719.939,754.1657,1719.4509,755.2508,1719.0024,756.3445,1718.5922,757.44904,1718.2205,758.56287,1717.8889,759.67896,1717.5952,760.80457,1717.3483,761.8943,1717.1328,763.0171,1716.9583,764.11945,1716.8179,765.2486,1716.718,766.33685,1716.6515,767.5034,1716.6251,768.6351,1716.637,769.76526,1716.6858,770.87695,1716.7721,771.9885,1716.8942,773.0856,1717.0505,774.164,1717.2476,775.2594,1717.4678,776.29114,1717.7297,777.34436,1718.0251,778.38275,1718.3529,779.40436,1718.7118,780.407,1719.1023,781.3933,1719.528,782.371,1719.964,783.2905,1720.4469,784.22656,1720.9412,785.11304,1721.4788,786.0057,1722.0432,786.87585,1722.6389,787.72974,1723.2562,788.5543,1723.8818,789.33545,1724.547,790.11127,1725.2301,790.85626,1725.9454,791.5853,1726.6838,792.28864,1727.4424,792.9636,1728.2145,793.60535,1728.9741,794.1962,1729.7753,794.77747,1730.5673,795.3136,1731.4059,795.84094,1732.2498,796.3329,1733.1672,796.8246,1735.1417,797.69934,1736.9288,798.3527,1738.7252,798.8781,1740.5652,799.2849,1742.405,799.5648,1744.2335,799.72015,1746.0728,799.753,1747.8862,799.6646,1749.676,799.4574,1751.438,799.1332,1753.142,798.7018,1754.8041,798.162,1756.3511,797.54865,1757.974,796.77155,1759.2721,796.0557,1760.0137,795.61365,1760.7368,795.149,1761.4427,794.6611,1762.1292,794.15155,1762.7957,793.6211,1763.4436,793.06854,1764.7748,791.7484,1765.8658,790.5118,1766.8607,789.2208,1767.7466,787.9017,1768.5734,786.4673,1769.2714,785.0476,1769.8767,783.57513,1770.3776,782.0805,1770.7703,780.58954,1771.0651,779.06195,1771.255,777.53894,1771.3425,776.01965,1771.3306,774.53015,1771.2141,773.0017,1771.0037,771.5333,1770.6963,770.08496,1770.3042,768.69415,1769.8176,767.3246,1769.2389,765.98785,1768.6002,764.742,1767.8549,763.5026,1767.0568,762.3547,1766.1727,761.25006,1765.2444,760.23517,1764.2559,759.28864,1763.2068,758.4104,1762.0916,757.59863,1760.96,756.8846,1759.7902,756.25073,1758.5856,755.6985,1757.3624,755.23315,1756.1132,754.85114,1754.8618,754.5574,1753.5894,754.3473,1752.3369,754.2244,1751.088,754.1846,1749.8107,754.2306,1748.5748,754.3578,1747.3734,754.56195,1746.193,754.84375,1745.0032,755.21533,1743.8816,755.6493,1742.803,756.15106,1741.7858,756.70746,1740.7689,757.3575,1739.8267,758.05255,1738.945,758.7981,1738.1189,759.5967,1737.3553,760.4398,1736.6565,761.3226,1736.0223,762.2428,1735.4508,763.2037,1734.9554,764.1769,1734.5168,765.2059,1734.1676,766.1976,1733.8698,767.2755,1733.6581,768.29346,1733.5094,769.37494,1733.4357,770.41626,1733.431,771.4574,1733.4946,772.4874,1733.6307,773.5312,1733.8298,774.53265,1734.0868,775.4929,1734.4185,776.4632,1734.8037,777.3847,1735.2415,778.26373,1735.7385,779.1145,1736.2817,779.9173,1736.88,780.6851,1737.5187,781.40106,1738.2014,782.07043,1738.9287,782.6932,1739.6725,783.24945,1740.452,783.7554,1741.2441,784.1986,1742.0587,784.5867,1742.9304,784.9307,1743.7831,785.2037,1744.6573,785.42017,1745.5338,785.57605,1746.4033,785.67194,1747.2559,785.7102,1748.1383,785.68994,1748.976,785.616,1749.847,785.4783,1750.6708,785.29126,1751.4698,785.05347,1752.2523,784.7626,1753.0001,784.42694,1753.7318,784.0374,1754.4264,783.60583,1755.0714,783.14404,1755.6931,782.63275,1756.277,782.083,1756.8152,781.50385,1757.3063,780.8997,1757.7495,780.27484,1758.1616,779.6008,1758.5172,778.921,1758.8209,778.23364,1759.0775,777.5302,1759.2853,776.81744,1759.4445,776.0969,1759.5549,775.36957,1759.6166,774.6231,1759.629,773.9192,1759.5947,773.20886,1759.5092,772.4793,1759.3809,771.78644,1759.2074,771.1064,1758.9922,770.4479,1758.734,769.8064,1758.4358,769.1878,1758.1034,768.6009,1757.741,768.0483,1757.3213,767.49567" fill="none" stroke="white" stroke-width="3"/>
<path d="M1502.1233,534.93976 C1502.1233,534.93976,1501.707,534.28656,1501.258,533.675,1500.7714,533.09656,1500.2518,532.55615,1499.7012,532.05444,1499.12,531.59186,1498.4976,531.1624,1497.8876,530.7974,1497.2485,530.47015,1496.5668,530.17816,1495.8956,529.942,1495.213,529.7518,1494.5283,529.609,1493.8369,529.5123,1493.1454,529.4623,1492.4645,529.45807,1491.7983,529.49744,1491.1035,529.58685,1490.4467,529.7162,1489.8129,529.8848,1489.1748,530.1019,1488.5715,530.353,1487.9926,530.6404,1487.438,530.963,1486.9072,531.3211,1486.4113,531.7055,1485.9369,532.1269,1485.4999,532.57025,1485.0897,533.0469,1484.7244,533.5327,1484.3904,534.04456,1484.0933,534.5738,1483.8374,535.10925,1483.6118,535.6781,1483.4316,536.23834,1483.2894,536.808" fill="none" stroke="white" stroke-width="3"/>
<path d="M1483.2894,536.808 C1483.2894,536.808,1483.1864,537.37946,1483.122,537.9535,1483.0961,538.5297,1483.1079,539.0919,1483.1569,539.65173,1483.2417,540.2009" fill="none" stroke="white" stroke-width="3"/>
<path d="M1756.8152,781.50385 C1756.8152,781.50385,1757.3063,780.8997,1757.7495,780.27484,1758.1616,779.6008,1758.5172,778.921,1758.8209,778.23364,1759.0775,777.5302,1759.2853,776.81744,1759.4445,776.0969,1759.5549,775.36957,1759.6166,774.6231,1759.629,773.9192,1759.5947,773.20886,1759.5092,772.4793,1759.3809,771.78644,1759.2074,771.1064,1758.9922,770.4479,1758.734,769.8064,1758.4358,769.1878,1758.1034,768.6009,1757.741,768.0483,1757.3213,767.49567,1756.8861,766.99536,1756.4286,766.5343,1755.9272,766.0935,1755.414,765.6993,1754.8815,765.3438,1754.3308,765.02673,1753.7614,764.74756,1753.1865,764.5112,1752.5906,764.31177,1751.9943,764.1553,1751.3826,764.03815,1750.785,763.96405,1750.1807,763.92975,1749.5796,763.9357,1748.9935,763.98016,1748.3937,764.06714,1747.8236,764.1888,1747.2642,764.3477,1746.7225,764.54126,1746.1978,764.76917,1745.6901,765.0313,1745.213,765.31885,1744.7563,765.63715,1744.3265,765.981,1743.9202,766.35315,1743.5447,766.7458,1743.1946,767.16473,1742.8932,767.57556" fill="none" stroke="white" stroke-width="3"/>
<path d="M1756.8152,781.50385 C1756.8152,781.50385,1757.3063,780.8997,1757.7495,780.27484,1758.1616,779.6008,1758.5172,778.921,1758.8209,778.23364,1759.0775,777.5302,1759.2853,776.81744,1759.4445,776.0969,1759.5549,775.36957,1759.6166,774.6231,1759.629,773.9192,1759.5947,773.20886,1759.5092,772.4793,1759.3809,771.78644,1759.2074,771.1064,1758.9922,770.4479,1758.734,769.8064,1758.4358,769.1878,1758.1034,768.6009,1757.741,768.0483,1757.3213,767.49567,1756.8861,766.99536,1756.4286,766.5343,1755.9272,766.0935,1755.414,765.6993,1754.8815,765.3438,1754.3308,765.02673,1753.7614,764.74756,1753.1865,764.5112,1752.5906,764.31177,1751.9943,764.1553,1751.3826,764.03815,1750.785,763.96405,1750.1807,763.92975,1749.5796,763.9357,1748.9935,763.98016,1748.3937,764.06714,1747.8236,764.1888,1747.2642,764.3477,1746.7225,764.54126,1746.1978,764.76917,1745.6901,765.0313,1745.213,765.31885,1744.7563,765.63715,1744.3265,765.981,1743.9202,766.35315,1743.5447,766.7458,1743.1946,767.16473,1742.8932,767.57556,1742.5995,768.0395,1742.3405,768.5181,1742.1198,769.001,1741.9348,769.48914,1741.7839,769.98517,1741.6682,770.48157,1741.5862,770.9807,1741.5377,771.4793" fill="none" stroke="white" stroke-width="3"/>
<path d="M1483.2894,536.808 C1483.2894,536.808,1483.1864,537.37946,1483.122,537.9535,1483.0961,538.5297,1483.1079,539.0919,1483.1569,539.65173,1483.2417,540.2009,1483.363,540.74384,1483.518,541.2701,1483.7086,541.78723,1483.9166,542.2577,1484.175,542.74817,1484.4637,543.2157,1484.7754,543.65173,1485.1097,544.05914,1485.4681,544.44073,1485.8445,544.79175,1486.2401,545.1146,1486.6522,545.40784,1487.0814,545.67224,1487.529,545.9081,1487.9843,546.1105,1488.4498,546.28125,1488.9135,546.41754,1489.4011,546.5253" fill="none" stroke="white" stroke-width="3"/>
<path d="M1861.206,1288.7836 C1861.206,1288.7836,1861.5173,1288.5779,1861.8348,1288.3966,1862.1805,1288.2297,1862.5208,1288.0925,1862.8622,1287.9803,1863.2201,1287.889,1863.5721,1287.8237,1863.924,1287.7823,1864.275,1287.7645,1864.6259,1287.77,1864.9686,1287.7981,1865.3125,1287.8496,1865.6458,1287.9224,1865.9767,1288.0184,1866.2898,1288.1321,1866.5963,1288.2671,1866.8911,1288.4211,1867.1688,1288.5903,1867.4426,1288.7839,1867.693,1288.9872,1867.9287,1289.2062,1868.147,1289.4377,1868.3484,1289.682,1868.5327,1289.9388,1868.6956,1290.2004,1868.8406,1290.472,1868.966,1290.7495,1869.0726,1291.035,1869.159,1291.3229,1869.2263,1291.6173,1869.2716,1291.8955,1869.2998,1292.198,1869.3071,1292.499,1869.2946,1292.7925,1869.263,1293.0796,1869.2126,1293.3619,1869.1449,1293.6357,1869.0599,1293.9023,1868.9585,1294.1603,1868.8406,1294.41,1868.7057,1294.6522,1868.5573,1294.8813,1868.3947,1295.0991,1868.2225,1295.3004,1868.0309,1295.4958,1867.8341,1295.6715,1867.6284,1295.832,1867.4137,1295.9778,1867.1927,1296.1074,1866.965,1296.2214,1866.7234,1296.3224,1866.4878,1296.4031,1866.2445,1296.4685,1866.0015,1296.5168,1865.7634,1296.5483,1865.5139,1296.5642,1865.273,1296.5636,1865.0339,1296.5471,1864.7987,1296.5151,1864.5618,1296.4664,1864.3433,1296.4067,1864.1151,1296.3271,1863.9015,1296.2361,1863.6962,1296.132,1863.5007,1296.0159,1863.3148,1295.8881,1863.1384,1295.7485,1862.9731,1295.599" fill="none" stroke="white" stroke-width="3"/>
<path d="M1886.8351,1153.5663 C1886.8351,1153.5663,1886.636,1154.1011,1886.3965,1154.6304,1886.1396,1155.1123,1885.8488,1155.5809,1885.5159,1156.0433,1885.1678,1156.4647,1884.7941,1156.8605,1884.4,1157.2258,1883.9833,1157.5635,1883.548,1157.8705,1883.1014,1158.1432,1882.6475,1158.3812,1882.1548,1158.5978,1881.6713,1158.773,1881.1874,1158.9131,1880.6814,1159.0231,1880.1848,1159.0969,1879.6898,1159.1373,1879.197,1159.1448,1878.7058,1159.1195,1878.227,1159.0631,1877.7479,1158.9738,1877.2847,1158.8551,1876.8258,1158.704,1876.3928,1158.529,1875.9701,1158.3246,1875.5648,1158.094,1875.1842,1157.843,1874.8103,1157.558,1874.4696,1157.2607,1874.1503,1156.9421,1873.856,1156.6068,1873.586,1156.2545,1873.3407,1155.8855,1873.1256,1155.5109,1872.936,1155.123,1872.7743,1154.7279,1872.639,1154.3225,1872.5323,1153.9148,1872.4529,1153.4989,1872.4033,1153.1068,1872.379,1152.6816,1872.3838,1152.2595,1872.4161,1151.849,1872.4747,1151.4484,1872.5593,1151.0552,1872.6678,1150.675,1872.8003,1150.3058,1872.9553,1149.9495,1873.133,1149.6053,1873.3341,1149.2727,1873.5535,1148.9591,1873.7922,1148.6621,1874.0433,1148.3887,1874.3215,1148.1244,1874.606,1147.8881,1874.9021,1147.6735,1875.2103,1147.48,1875.5265,1147.3094,1875.8513,1147.161,1876.195,1147.0317,1876.529,1146.9305,1876.8732,1146.851,1877.2161,1146.7953,1877.5511,1146.7631,1877.9016,1146.7533,1878.2393,1146.7662,1878.5734,1146.8013,1878.9014,1146.8578,1879.2308,1146.9379,1879.5339,1147.0325,1879.8496,1147.1555,1880.1444,1147.2937,1880.4268,1147.4498,1880.6948,1147.6222,1880.949,1147.8105,1881.1892,1148.0148,1881.4132,1148.2325,1881.6194,1148.4614,1881.8103,1148.7042,1881.9778,1148.948,1882.1351,1149.2142" fill="none" stroke="white" stroke-width="3"/>
<path d="M1882.1351,1149.2142 C1882.1351,1149.2142,1882.2706,1149.483,1882.3856,1149.7542,1882.4835,1150.0363,1882.5608,1150.3185,1882.6188,1150.6033,1882.6575,1150.891" fill="none" stroke="white" stroke-width="3"/>
<path d="M1882.1351,1149.2142 C1882.1351,1149.2142,1882.2706,1149.483,1882.3856,1149.7542,1882.4835,1150.0363,1882.5608,1150.3185,1882.6188,1150.6033,1882.6575,1150.891,1882.6768,1151.1686,1882.677,1151.4608,1882.6588,1151.7391,1882.623,1152.0117,1882.5664,1152.2921,1882.4945,1152.5566,1882.4056,1152.8145,1882.3026,1153.0599" fill="none" stroke="white" stroke-width="3"/>
<path d="M1882.1351,1149.2142 C1882.1351,1149.2142,1882.2706,1149.483,1882.3856,1149.7542,1882.4835,1150.0363,1882.5608,1150.3185,1882.6188,1150.6033,1882.6575,1150.891,1882.6768,1151.1686,1882.677,1151.4608,1882.6588,1151.7391,1882.623,1152.0117,1882.5664,1152.2921,1882.4945,1152.5566,1882.4056,1152.8145,1882.3026,1153.0599,1882.1798,1153.3046,1882.0458,1153.5327,1881.8954,1153.7533,1881.7351,1153.958,1881.5647,1154.1487,1881.3751,1154.3337,1881.1786,1154.5013,1880.9735,1154.6538,1880.7617,1154.7904,1880.5426,1154.912,1880.3184,1155.0176,1880.0944,1155.1057,1879.86,1155.1803,1879.6202,1155.2391,1879.3838,1155.2808,1879.1438,1155.3065,1878.9072,1155.3162,1878.6752,1155.3103,1878.44,1155.2886,1878.2107,1155.2518,1877.9875,1155.2007,1877.7672,1155.1343,1877.5562,1155.0552,1877.3508,1154.9622,1877.1592,1154.8597,1876.9718,1154.743,1876.7894,1154.6115,1876.6224,1154.4731,1876.4651,1154.3241,1876.3207,1154.168,1876.1866,1154.0021,1876.0654,1153.8297,1875.9564,1153.6504,1875.8611,1153.4673,1875.7782,1153.2784,1875.709,1153.0875,1875.653,1152.8933,1875.6097,1152.6946" fill="none" stroke="white" stroke-width="3"/>
<path d="M1882.1351,1149.2142 C1882.1351,1149.2142,1882.2706,1149.483,1882.3856,1149.7542,1882.4835,1150.0363,1882.5608,1150.3185,1882.6188,1150.6033,1882.6575,1150.891,1882.6768,1151.1686,1882.677,1151.4608,1882.6588,1151.7391,1882.623,1152.0117,1882.5664,1152.2921,1882.4945,1152.5566,1882.4056,1152.8145,1882.3026,1153.0599,1882.1798,1153.3046,1882.0458,1153.5327,1881.8954,1153.7533,1881.7351,1153.958,1881.5647,1154.1487,1881.3751,1154.3337,1881.1786,1154.5013,1880.9735,1154.6538,1880.7617,1154.7904,1880.5426,1154.912,1880.3184,1155.0176,1880.0944,1155.1057,1879.86,1155.1803,1879.6202,1155.2391,1879.3838,1155.2808,1879.1438,1155.3065,1878.9072,1155.3162,1878.6752,1155.3103,1878.44,1155.2886,1878.2107,1155.2518,1877.9875,1155.2007,1877.7672,1155.1343,1877.5562,1155.0552,1877.3508,1154.9622,1877.1592,1154.8597,1876.9718,1154.743,1876.7894,1154.6115,1876.6224,1154.4731,1876.4651,1154.3241,1876.3207,1154.168,1876.1866,1154.0021,1876.0654,1153.8297,1875.9564,1153.6504,1875.8611,1153.4673,1875.7782,1153.2784,1875.709,1153.0875,1875.653,1152.8933,1875.6097,1152.6946,1875.5803,1152.4951,1875.5645,1152.2983,1875.5618,1152.1013,1875.572,1151.9072,1875.5947,1151.717,1875.6302,1151.5278,1875.6775,1151.3441,1875.7372,1151.1632,1875.8076,1150.9894,1875.8894,1150.821,1875.9783,1150.6648,1876.083,1150.507,1876.1918,1150.3644,1876.3097,1150.2292,1876.4373,1150.1016,1876.5704,1149.9849,1876.7113,1149.8772,1876.8573,1149.7803,1877.007,1149.6947,1877.162,1149.6193" fill="none" stroke="white" stroke-width="3"/>
</svg>